<mxfile host="app.diagrams.net" modified="2020-12-08T11:22:38.500Z" agent="5.0 (Windows NT 10.0; WOW64) AppleWebKit/537.36 (KHTML, like Gecko) Chrome/87.0.4280.88 Safari/537.36" etag="borDDSgcc_bzFOVw9Unq" version="13.11.0" type="github">
  <diagram id="3H3_Qlsaqcw9E4mh5J3B" name="Page-1">
    <mxGraphModel dx="3125" dy="1228" grid="0" gridSize="10" guides="1" tooltips="1" connect="1" arrows="1" fold="1" page="1" pageScale="1" pageWidth="1800" pageHeight="600" math="0" shadow="1">
      <root>
        <mxCell id="0" />
        <mxCell id="1" parent="0" />
        <mxCell id="ItB4P-0cPvp-1sTLBnrw-3" value="&lt;span style=&quot;font-size: 17px ; color: black ; font-weight: bold&quot;&gt;&lt;br&gt;Complete&lt;br&gt;&amp;nbsp;Survey &lt;br style=&quot;font-size: 17px&quot;&gt;&lt;br&gt;&lt;/span&gt;" style="ellipse;html=1;shape=endState;perimeterSpacing=0;strokeWidth=5;fillColor=#B2C9AB;strokeColor=#788AA3;fontFamily=Helvetica;fontSize=17;fontColor=#46495D;" parent="1" vertex="1">
          <mxGeometry x="620" y="169" width="139" height="93" as="geometry" />
        </mxCell>
        <mxCell id="ItB4P-0cPvp-1sTLBnrw-4" value="&lt;span style=&quot;font-size: 17px ; color: black ; font-weight: bold&quot;&gt;Check &lt;br&gt;Reports&lt;br&gt;&lt;/span&gt;" style="ellipse;html=1;shape=endState;perimeterSpacing=0;strokeWidth=5;fillColor=#B2C9AB;strokeColor=#788AA3;fontFamily=Helvetica;fontSize=17;fontColor=#46495D;" parent="1" vertex="1">
          <mxGeometry x="1089" y="164" width="139" height="93" as="geometry" />
        </mxCell>
        <mxCell id="ItB4P-0cPvp-1sTLBnrw-5" value="&lt;span style=&quot;font-size: 17px ; color: black ; font-weight: bold&quot;&gt;&lt;br&gt;Fill Weekly&lt;br&gt;Plan&amp;nbsp;&lt;br style=&quot;font-size: 17px&quot;&gt;&lt;br&gt;&lt;/span&gt;" style="ellipse;html=1;shape=endState;perimeterSpacing=0;strokeWidth=5;fillColor=#B2C9AB;strokeColor=#788AA3;fontFamily=Helvetica;fontSize=17;fontColor=#46495D;" parent="1" vertex="1">
          <mxGeometry x="862" y="169" width="139" height="93" as="geometry" />
        </mxCell>
        <mxCell id="ItB4P-0cPvp-1sTLBnrw-7" value="&lt;font size=&quot;1&quot;&gt;&lt;span style=&quot;font-style: normal ; font-size: 27px&quot;&gt;Mini Survey Tool&lt;/span&gt;&lt;/font&gt;" style="verticalLabelPosition=middle;verticalAlign=middle;html=1;shape=mxgraph.basic.rect;fillColor2=none;strokeWidth=2;size=20;indent=5;labelPosition=center;align=center;fontSize=16;fontStyle=3;fontFamily=Helvetica;strokeColor=#0e8088;gradientDirection=south;fillColor=#00BABA;" parent="1" vertex="1">
          <mxGeometry x="3" y="4" width="1781" height="107" as="geometry" />
        </mxCell>
        <mxCell id="ItB4P-0cPvp-1sTLBnrw-10" value="" style="verticalLabelPosition=middle;verticalAlign=middle;html=1;shape=mxgraph.basic.rect;fillColor2=none;strokeWidth=1;size=20;indent=5;fontFamily=Helvetica;fontSize=16;fillColor=#B2C9AB;strokeColor=#788AA3;fontColor=#46495D;labelPosition=center;align=center;" parent="1" vertex="1">
          <mxGeometry x="2" y="494" width="1797" height="685" as="geometry" />
        </mxCell>
        <mxCell id="ItB4P-0cPvp-1sTLBnrw-22" value="&lt;b style=&quot;font-size: 25px;&quot;&gt;&lt;font style=&quot;font-size: 25px;&quot;&gt;Check Reports&lt;/font&gt;&lt;/b&gt;" style="text;html=1;strokeColor=none;align=center;verticalAlign=middle;whiteSpace=wrap;rounded=0;sketch=0;fillColor=#4481DB;fontSize=25;" parent="1" vertex="1">
          <mxGeometry y="319" width="1793" height="87" as="geometry" />
        </mxCell>
        <mxCell id="ItB4P-0cPvp-1sTLBnrw-26" value="" style="shape=image;html=1;verticalAlign=top;verticalLabelPosition=bottom;labelBackgroundColor=#ffffff;imageAspect=0;aspect=fixed;image=https://cdn2.iconfinder.com/data/icons/font-awesome/1792/hand-pointer-o-128.png;rounded=0;sketch=0;strokeColor=#788AA3;fillColor=#4481DB;fontColor=#000000;align=center;rotation=-30;imageBackground=#F7F7F7;" parent="1" vertex="1">
          <mxGeometry x="1232" y="248" width="47.23" height="47.23" as="geometry" />
        </mxCell>
        <mxCell id="fib1wxl0wyrwoQYYHffn-2" value="WIP Board     " style="verticalLabelPosition=middle;verticalAlign=middle;shape=mxgraph.basic.rect;fillColor2=none;strokeWidth=2;size=20;indent=5;labelPosition=center;align=center;fontSize=25;fontStyle=1;fontFamily=Helvetica;strokeColor=#0e8088;gradientDirection=south;fillColor=#00BABA;spacing=3;spacingTop=0;" parent="1" vertex="1">
          <mxGeometry x="787" y="537" width="308" height="82" as="geometry" />
        </mxCell>
        <mxCell id="fib1wxl0wyrwoQYYHffn-3" value="&#xa;&#xa;&lt;span style=&quot;color: rgb(0, 0, 0); font-family: helvetica; font-size: 20px; font-style: normal; font-weight: 700; letter-spacing: normal; text-align: center; text-indent: 0px; text-transform: none; word-spacing: 0px; background-color: rgb(248, 249, 250); display: inline; float: none;&quot;&gt;&lt;span&gt;&amp;nbsp;&lt;/span&gt;Report Last Refreshed&amp;nbsp; :&amp;nbsp; dd/mm/yyyy&lt;/span&gt;&#xa;&#xa;" style="text;html=1;strokeColor=none;align=center;verticalAlign=middle;whiteSpace=wrap;rounded=0;fontSize=21;fillColor=#ffffff;" parent="1" vertex="1">
          <mxGeometry x="1290" y="436" width="510" height="57" as="geometry" />
        </mxCell>
        <mxCell id="fib1wxl0wyrwoQYYHffn-5" value="" style="shape=image;verticalLabelPosition=bottom;labelBackgroundColor=#ffffff;verticalAlign=top;aspect=fixed;imageAspect=0;image=data:image/png,iVBORw0KGgoAAAANSUhEUgAABmcAAAE+CAYAAAB4AsQxAAAgAElEQVR4Aey9Tc/EMHImpp+Q694Gc3D2Et/dwNwG8NUHY5AgB2MRTC8SYJBkAi9iY5FFMgmQk9EGfJk/YGCB5DRAX33ZH+B7/4jdeL3rr5lRUJSKLFJFiWqREkk9DbyvvshisZ4qslQlSsM4/4ZhGPEHGUAHoAPQAegAdAA6AB2ADkAHoAPQAegAdAA6AB2ADkAHoAPQAegAdKAtHeA4P7btSGBgVmFsbRkb8AJe0AHoAHQAOgAdgA5AB6AD0AHoAHQAOgAdgA5AB6AD0AHoAHQAOgAdaEMHOBfD20Vyhi9g26cE2FD77N39egU8+8IceALPviTQV29gn33heaQ30IUj0quvLvCsD5MjHAHPI9Krry7wrA+TIxwBzyPSq68u8KwPkyMcAc8j0qunLuGIX90S0DCyqMEQ6wYvF3fAOZck66ADPOvAIRcXwDOXJOugAzzrwCEXF8AzlyTbpwNdaB9D2QPgKaXR/j7wbB9D2QPgKaXR/j7wbB9D2QPgKaXR/j7wbB9D6gHhiF/dEtAwsqjBEOsGLxd3wDmXJOugAzzrwCEXF8AzlyTroAM868AhFxfAM5ck26cDXWgfQ9kD4Cml0f4+8GwfQ9kD4Cml0f4+8GwfQ9kD4Cml0f4+8GwfQ+oB4Yhf3RLQMLKowRDrBi8Xd8A5lyTroAM868AhFxfAM5ck66ADPOvAIRcXwDOXJNunA11oH0PZA+AppdH+PvBsH0PZA+AppdH+PvBsH0PZA+AppdH+PvBsH0PqAeGIX90S0DCyqMEQ6wYvF3fAOZck66ADPOvAIRcXwDOXJOugAzzrwCEXF8AzlyTbpwNdaB9D2QPgKaXR/j7wbB9D2QPgKaXR/j7wbB9D2QPgKaXR/j7wbB9D6gHhiF/dEtAwsqjBEOsGLxd3wDmXJOugAzzrwCEXF8AzlyTroAM868AhFxfAM5ck26cDXWgfQ9kD4Cml0f4+8GwfQ9kD4Cml0f4+8GwfQ9kD4Cml0f4+8GwfQ+oB4Yhf3RLQMLKowRDrBi8Xd8A5lyTroAM868AhFxfAM5ck66ADPOvAIRcXwDOXJNunA11oH0PZA+AppdH+PvBsH0PZA+AppdH+PvBsH0PZA+AppdH+PvBsH0PqAeGIX0YJvJ9GpsPjNX4ykdUwsqjBEDNJuXIywLlygHayBzx3Cqzy4sCzcoB2sgc8dwqs8uLAs3KATmQPunCisE9oCnieIOQTmwCeJwr7hKaA5wlCPrEJ4HmisE9oCnieIOQTmwCeJwq7YFOEY87f+zlMyYkh2GZMVuTkNzstJGeyixQE5yxqbmOFYK+TACbQ62RfomXgWUKq19EEntfJvkTLwLOEVNukCV1oE7cY18AzJpk2zwPPNnGLcQ08Y5Jp8zzwbBO3GNfAMyaZNs8DzzZxC7kmHHP+WkvOWH6f7zxiQHImjxxBxZcABlxfHq0fAc/WEfT5B56+PFo/Ap6tI+jzDzx9edz5CLrQF/rAE3j2JYG+egP7BJ59SaCv3sA+gWdfEuijN2SXOX/Zkx05mVNoZecXyRlFyjh1WAKYQA+LsCoCwLMqOA4zAzwPi7AqAsCzKjgOMwM8D4uwGwLQhW6gNB0BnsCzLwn01RvYJ/DsSwJ99Qb2CTz7kkAfvSG7zPnbSnZ8Xo/FN1m4zuNFX2n5jK8HvRLtOb4/7/H1nMsPw/h4Lr/j8nk9x4d4hdrj+V5868Uv8xifb9lO8Po1sYLGr0fth7Q/41vwNzye4/uFb87k1CfQmiWACbQvVQCewLMvCfTVG9gn8OxLAugNSwC2zZLoYws8+8CRewE8WRJ9bIFnHzhyL4AnS6KPLfDsA0fuBfBkSbS9JRxz/jjRwvrBW5fzeI/POZlikjGf15xceY7Ti8U4ORMkTTgBI75dE2trEGVsMojrm+1jfH0i7cyMptCOlqE2BA9H5athZFFjAR9tBPXrlgBwrhufvdwBz70Sq7s88Kwbn73cAc+9Equ7PPCsG58zuYMunCnt8m0Bz/IyPrMF4HmmtMu3BTzLy/jMFoDnmdIu3xbwLC/jM1sAnmdKu1xbhGPOXyxh4ZIz4zjyq7+Gx/gwq2SGcVo1Q5yIpMnjNZpFLnSWV9wMlFgxJ+akznxsqnLih8/xsaBPq3EefJ1YmZNAkkGbMHLlxg/T4nN8HNKe6SE5k1OtQAsDbl86ADyBZ18S6Ks3sE/g2ZcE0BuWAGybJdHHFnj2gSP3AniyJPrYAs8+cOReAE+WRB9b4NkHjtwL4MmSaHtLOOb8qckOpQFbbrHKxCVnZL5kHF0yxJy3CR59hY0pY5MsvCpnyYjlQzZ2hDbXRXJmKWyc+V4CGHC/l12NNYFnjah8zxPw/F52NdYEnjWi8j1PwPN72fVWE7rQF6LAE3j2JYG+egP7BJ59SaCv3sA+gWdfEuijN2SXOX9qsmPRgEvATOOCTJ64azJf8lVyhhMl9P2aBQ/TCZVfW++LxA/XRXImInGc/koCmEC/Elu1lYBntdB8xRjw/Eps1VYCntVC8xVjwPMrsXVZCbrQF6zAE3j2JYG+egP7BJ59SaCv3sA+gWdfEuijN2SXOX9qsiNowL6i7PEcn/NrzQabiXHJGfpuy/Ras8/4tq81mxMtdlUMv2YsaIQObZnw1WPP6dVo5g1ria81C8lHaeO1ZqGocJxBAphAMwixIhLAsyIwMrACPDMIsSISwLMiMDKwAjwzCLETEtCFToCcuwE8gWdfEuirN7BP4NmXBPrqDewTePYlgT56Q3aZ82eTM/S6Mu+PV6/w68nmpAqvNOFvychvznj1l0mU7bbEN2U8Wi6hYxNFfH1OEn1PG8mZnPoEWrME2JggkD4kADz7wJF7ATxZEn1sgWcfOHIvgCdLAlvoQl86ADyBZ18S6Ks3sE/g2ZcE+uoN7BN49iWBPnpDdpnzt5XUsNe1lTLmnFs583y93cqaYRgfz/f48Zj9jO/nY3xwYsVuORFEhcMyj/H5klQ+4+v5sImkh70W1uNkk09b1h0ez/H9mZNPeK2ZhxQODkoAE+hBAVZWHXhWBshBdoDnQQFWVh14VgbIQXaA50EBdlQdutARmONob9766tV9ewP77At74Ak8+5JAX72Bfe7E0742yT3lv5PC8eK8qkEJNAPP4+KtgQLhWNdPJGdiH4qpi+Hi3GgYWdRgiMXlX0UDwLkKGLIxURxP60BQVllmlLN1AYSEBIrjKdrCbnkJAM/yMj6zBeB5prTrbqsFXbBPsZknzmJBAP/pNfdu6Lrln5u7FvDM3eee6QHPvtAFnsCzLwn01Zt1+1w+pf4wT6H3JYNdvbGxlZhftovad4WRnPlObg3VIrus64fkTIiHhpFFbX1gDUnhuFUJAOdWkdP5Lo1n+L5GtyRQ5wdnj0mgNJ7HuEPtvRIAnnslVnd54Fk3Pmdy14Iu+MkZ8dFMKSi+QedXBtjXEchC/e+3gGf/KOTrIfDMJ8saKAHPGlDIxwPwzCfLGijF8XTBWC5jt8LXsL6KOHdGv65q133MHMmZM3C+axtka3X93HhwsqnXJQbBjYaRRY0HS1Eeux1KADj3BWpZPHkQfY6v13N67Yey/LUviV7bm7J4Xtu3O7YOPPtCHXj2heeR3rSgCxx4eDz4ncvh6lee44fRlrnpHVMLeB7R17vVBZ59IQ48gWdfEuirN1H7VFeIfMb362m+McFSYF/l7JW7V7WL5Awjj21JCZBd4le3BDSMLGrRgbXuPoG7nRIAzjsFVnnxoniyU2USMvNHsIbwKQ8O7kwfypIfz3o8X+LjXqnl3Me23u/n/CEwF1D60LkHf7iLtvTxL/cRsZijZVcAicDTh5xDflp48TGydT5KqUVRPEsxDbpRCQDPqGiavAA8m4StCNMt6ALPh4/Xa3zOc52YAkcXIKAHMOYEjiiwnG/po51yXh/Hz/sl5uTH+Hy7j3GuXSsCygGiLeB5oHu3qwo8+4IceALPviTQV2+i9slxhGHwfAPXe44NyPv6YZySNLH7cFdHuCvjyKuAg4dI/Xt99lEcDebdbA1Bd22dfow/8ovCWEXgO1m5hDEVIZktGiPzOX+oXMRGQj+NP5xu+0qvlVt56JbLOW6w16IECEf86paAhpFFDYZYN3i5uAPOuSRZB52SeHJCg19l5gI9LvhCE/5LOATMj91aJym13OzsiKQJf+uG+bG0ZRn2oNg5876P49p2xQJHkGlZfuN8lESe+1ayDdA+TwLA8zxZn9ES8DxDym200YIuyDnbzp88CY4Uy5jmQZrjl9e1OXCeN5mGDTDI+XR+mGLtWoUQt4BnhWKrliXgWS00XzEGPL8SW7WVgGe10HzFWBxPd/9tyjym5IiLIgTX+V7c+BiaD0L+havDrohhmu//7X08PX/Cq4alj0IJEUeDeTdbQ9BdW6cf4087H/OdYsmZBBpCDl4fPBlOcLKvp5YT8mLwuRwfY9umBAhH/OqWgIaRRQ2GWDd4ubgDzrkkWQedcniyYyAcB8Xx8ZIzj9fID806h4jrO2dnWC3H7U5PzjgHzp3nZBEhsGzHlbNOFfPNCRsbNGLeiBDX43N87PPh2mNHz63qyaER5fDMwR1o7JUA8NwrsbrLA8+68TmTuxZ0gW/IzZy5mPd4jpvmPDu32YmTpsX3+HGT8EhPoJp+8808z630FCYJ//MeX7y/du1MoBLbagHPxK6g2DhOeorARDe6APvsBkrTEeB5Jzw/o3yrxoQ9r2CZ5MC+iv9aM/ZR/PtwGXcQ7oqycsbVt3ED46Pwfb57QMVv18UrUulTfeEqbftOC39sqQ+b/pdMzpDfZRj42IduKNYy8RSTwxzHsOUcD7BPJ4uW9whH/OqWgIaRRQ2GWDd4ubgDzrkkWQedYnjawApP7iYTYl8D5hyWiBMzOmdgKptajus558lImvnhBIsVP5enJdPTydDJC4/t0md+uiTYTnSYrs+HDWDZOkjOWCiws5BAMftctIQTZ0gAeJ4h5TbaaEEXeO6bAhNuDqZjO5fNN+b2mCdSgoEeWrDfq+EHEoZRu+kneTxsgIAq8xw61fOv1YdxC3jWJ7V6OQKe9WLzDWfA8xup1VsHeNaLzTecpeE5f2vG3j+7+2v2VfwkCfsQrtzEm/NlpLti7+052WATIPH7dL3dRPrWxwn5S/CdLG9KXQZg0/9K5NO2FciB4yosL24XDzcISbS9S3aJX90S0DCyqKUNrHV3ENxtSwA4b8uopRKl8LQOi3WiRGCGzlmPKOIcWKeFkyap5SLOGDsRCckZz0GzTolwgCytoE9zX9eSM6V1oxSepfkGfV0CwFOXS6tngWeryOXnuwVd4HncPjVq577n+JxfR8pT+SI5Y+dOZZ70bubjARfznnPv225iHs4PySGKLeB5qIM3qww8+wIceALPviTQV2/22Sff53N8ILaChcuFfkMknsD+DfsnfLyIGzjZs4/kYhp0LZG+jXME/KX4TrZMUJdZs9fX/K9EPi0tJGdYvHfZkl3iV7cENIwsavsG1ro7Cu7iEgDOcdm0eKUMnuwQKU6BTdbwJO+cA/e6MgrW8Hte95bjtgOHxToXw2gDTWYxT9gOoehoPJ/zdXbW6LKlFbThKYCj8ZJrlb0y+Q/K4JmfT1BMkwDwTJNTK6WAZytIleezBV3gwIObM3le47md52fxilDO1nBgg19TZqbO5WvNHvZ1Hs4XMO3Rx2xj18rDs7uFFvDc3akbVwCefYEPPIFnXxLoqzdR+zQftadXbrkb6c/7tXgLB/sqfpKE/ZXwXt35GlR+epsXvVJ19mv4ft/e64u4wfzqVb6v19tNpC9iDUzPoJriO1newr7NepFCIzWJZNsK5RDIS6hkFE9RBrv1S4BwxK9uCWgYWdRgiHWDl4s74JxLknXQKYKndQrEK824u2KSn2I4womxiRsO/OgrbJhnb8sBoZizIz5e7NWb23TBp4lR63AlXnc0OVgVcwpZEGW2zEcZ6qB6tgSA59kSL9se8Cwr35aot6ALPA/K+ZHPGf7tvKskZ8Rcz321Ww5+sK8QzP2G7Nq1CoHmvlXIGlj6QgLA8wuhVVwFeFYMzhesAc8vhFZxlRiedkVu4COY8uxHeA9azvGDyYkYn6beMoGRStfzdywPjt6CzuwTLc7butprXR09A1GK72TLBHUZY3tdxFOYBys3F38Rrpzy7R2xMolpyK2lx43jm21OEm3vkZ3hV7cENIwsarGBte4ugbu9EgDOeyVWd/kSeLIzIwM6TgrOGZiecHHHzxe9n945Eu6pWaqdWm4tKRK+PoWcJP+jgpZPLzDECRd71fDzfj7s0zssx8Euf17jQ9LJu8985KUKaldJAHheJfky7QLPMnJtkWoLuqDO5fQkq7kx94MCNhgh7vI/tizN64/x+XpNwRJ7M08fn+XVq+F8vHatPsRbwLM+qdXLEfCsF5tvOAOe30it3jrAs15svuEsjud83y5iA+a+/TWveLGNfcaX8CWm+MPafXjoX9DqnLm89U+I+FRu8nnYj3GreExsYtGuq8f9Gsz39EL6cf42fSebfPH9MCsO4jzB/+LVQsJtU5MzYT/1/rjWud/uDPZalADhiF/dEtAwsqjBEOsGLxd3wDmXJOugcz2eIunyXpNJark1Gv1fux7P/mV8Zg/vg2d4A0SB2ufoLfU/U/CF2roFnvKG8PEaV4f1QnJugewtdKEFIDLxCDwzCbISMu3hCR95TXXaw3OtN7h2azwTAvOtacit8WwNrAR+gWeCkBooQjh2+etoDNUwsqi1Zoj8RCDzPW0f4h3XXarj4U6xvA4TykpgGdh7mKcUsjbSJbHr8Uy9oUwt1yVMyZ3ajaedoOiJIG2FUHLTNymorL4aNuaNAzLejecFKPhzaewpLn9VnP9eaGfb3F+31XXSb5NX223gcIFswia5X+F57djv4zdy1aiWPsdPAjImOn6luUimb20zJt9kSrsL7tGF3cRR4XQJtI7n0fHGr8/2L1/hcjokhxrci6ff/9h4sjYPHmLXX12+KyMemX9pVfni6fSDPGK8/UqAvm6xbS39Hb/cFTr4Vfe+qrTXPr9qJKnSF/cESXRXCoV2FB6vVK31Uj141iqhtvhKx/MzrfAJV0a95eqkivv+te2dOO8eEB/hmP5rCMuvcVOkkZOWQn7rlIaRRS3dELeaOee678SwszNvvSWN3/Nj2/DWC35Pr4aa9eEcGeDotRtC7kewOFK3BszWeLgeT4efgEthObWcUvVGp/biaV9FM78/Vn8V3Y0EuNrVILAi37lr9vVA9BEZ78Vzlf1CF+34uKZD3msC/bF5tI7NMD7ZIbfn9ABD2CbLyWwzzd8lxMV8ptAO+6ja5ppcUxrJXcbyo9vCkeasPNYnin1NbOjZPmL7Su/RhX2UUfoKCbSOp7WvL8fxsD7LY6h4PF7TE+Z/rYy8Fvb//PH6Wx/Z1eM++1t9DpZ9T97HeJssKlkw1C0PH2FfYbnzdVByXXafZVC2lS3q390TbFHdvB7aUXgsv7Ga01/aZOz7AnXg+T3/qOlLIA3Ptbkn47zjs5b36GvbW+s7xaL399+O/xltnnBM+631Z39f0to8UErBLYWaKuMvaaW0l1JGw8iilmaIKc2cU0YT8Of1HLkfOXRba+Oc3pVrheVTroWdlFWjmJ9kESAeweJI3Z29Ob14dXieLoG+GtyHJ0+mz/HFY5+40etLMsd7Y8cBcpo4iRC+11eMOVOLx2S8D8/jffyGAsvl8eBvR4SBeZbBMNoynpzcagt7eiPIz23KBHzu+fsbWWzV2YMn99HKbLGybUuuW9wUuM64FRhHWB4S8wI9OI3kHl04jSk09LUEWseT7evb8Ybr39U+uf/fyu9rxbMV3Xxg51F7bW3H1ZPBfO97BQXG8zWOSlxr2T5Zt6Rtaf4Ol7tOB0sgp9OsAU+WtwmkJt8T6P3ZdVaNe/gULG/7BgOfyIlHNeB5Yne7byoFT/ng4kOs0vzQt38eFQb0E1FLs738825au4mdmIsRjim/5rBMGEO1fpeQsdbOnnMaRha1FEPc01jpsrqAl0Ei46DK5XbDMD6er9EtuJvr0LvV7bvWH+MjqGPkM0+Sn/dLXI98kLy0AL6kXx3O1sDEU9de39wAyLz7WDwFFtPKKYfvWl13zfN9lOBUzXizTDyR4aBZCezCk23H3Hjz2Bc6RKzn08cSvQ8ueuNgajltvHTB/OV4679aQx+3x9E6BsIY6ebVfcSRxm35Acl1PhYKwLKi8V/5EIptPwygc71VGS9asyd24WlrnbvDmDz4Y98DjcWCB5bBQEnAOYHjFaDvT/Lq1cf4tB/XpLlR0BG7trxXgHU4aF/Uu3p3D57cx2/lurSl0HfxbfYpfBY3B5LEuFwg12CuczbAWLoVUtu8TMj4Nsu+kWuf5We2Bnt3zVeF+UEbG1SM2LvVTR73mN78cdioTExWdpQyc7wxrXVt4/LrpXC1FQm0jufR8YbrywByK9hpfO7Fk/v/7XhNPPjjX+izTFz6ZXiMNLVH+3Hn19v/OLbnq4W95TFP8W14jA+e4vV5WPIZvedZjLcp4yjzlzAmh10Tx3vxFFUv32Xd8m1r6e9wuSM6eHlnExm4HE+ry4rdGFsOH1ZiPV73o6j7m/6SbXv2Nbxj1w7LyGyfb+dne86Sfv+UCEO2YsxrNoIgdKkEtvF045c/rulsL23Cjw24+xRtnqB7/+nzB8yXfo/zRd1E21v2ytnpIqagzLvL/sv7OUeL+2e2ws635uwlf9MZorP9qxfLaMzKw831MC6nFRnHaFFOQNxDUhLff1Us09T0TuYZHH/anoaRRY0VQqtY4zl2YtygQKsteDLlm2uhcOErbKzSa2VWkjMWRBHACAN6NQps5qk+nFm5Z3nSe5LfNAzzL7jOOBr8NOxmOub6Wl13zaoCNcmDKgeFKse7PjwZN2y/kcAePDmYyo4Bj4l8PLXv9Jxpe1vWcxHA9a6zvdlyms1NyRnmR63PRsb25Y2ZjkdXTI6vYj+BD1Xutl2eG4JSkevcJ5apLuOAljhkWYhT1e3KPnF/3bzqEi8kA+266VA4TtLDDm4QX/SZ23TtaPP3otrlJ/bgyX2MyW39umZncm4jUTi7Yb68LRuTKGdPUXXW+dmmmJ8ljRReRICAxwyzJXuL8GmYcdfWeBtHjQdyiF9zApft2tHz+sE82UaY3uRsv71EMNNaVzemv14KV1uRQOt4sv1+N964cZ7lwFtrMq0AOfPJ/KeyXUp+8rVwdv7k8ciOkcRl6tgV9sjVYz/FleBxzgWUuZ8sH7tl38qOqcLvYn/NXuMxkumvjaOOP9uW7H+ignFd17d29qzMbV91f4fLfWvD7UhktG85uYxn9n+CxKXlZ3Hd6bGFkQpzObYf1VcJfLfQjrxj1w7rvNlSo9wW26Nh1pX3+LIdOWeHeT2nNbRSWgKbeFqddXNLjCd93gtsYmv+k3MG71uFdzbAfG9uua7tx9a9Stg71+b2vMvzpJxTZf8dLY/vmUeeF7xrJAM75oS8uWOqs/mzMmgAS+6z5Zl9kbgPO8lpRcYKrSw6yzq2AYCGkUWNQd+gUc3lqLKSwgqBfN7v8SOCRJRVM31lgOVE6j2ZLYAW9OzkSB+sJ2l83uOL96uRTpyROnH+eE+JTTzKJ8oiWBjxb+Ebq+sMVcLr8J2znuwMMcaV4V0nnnH9w5V1CaTjyZO9m5gWumuacnpOExQHzN3Ew/VTy3G70zjrhlZ3Xjoqy3ZcOWt3bGN8w6FMlDTOPo1Dxvzysc+Ha4+doHmcDtsIYbDXmT4V4DbEOS5n54+QkH+cjqdf78wjnksNbgvZ+zKw8rXg0SD88lY4mT7zeGkdbiFDcz/L+ChbSftMQSS0tQfPo3Ld9l2kzVKigjpAT5fNMrU66sp5otV0WTuXNM+ynoinUM1c6XC3fHlMpPLm6JN/Z8cdq3vcjqM3kA7GZML1BC/Mnzi1qhF7dGGVEC5WIYHW8WT9/XYc5/osB96m2kMVIAommH9xanWX+/+V/Hg8kYHeFZ/F+kjeGJk4di164epZuraMu2ZwTOHTzgHKPW5Yn4+FkrAc3SnHw+qYbHnWd/biqVO55izLhPvgbZ2g7Nz9lQ5e07WvW2UZfE3gaEXWc77vCOnZ60vfQkBGAYYgpkRhoY24BNsNjxfhsfSR/cbm+yARROX2Y/0I+1Xo+HI8C/XrrmQ38VR0VpeV893l/GTvJdkG7L0iJR2c786rSc2qhTmAYesq9zi76yr9sOO1Z3th79y8Jvs1lXLXmMTmmBCzeYW/ZTwk5M0dE46bP60NtdLZWK7ErEKew2Pif+GDReLBi7rH+mn1x+qnKkx7UsPIorZpiJZMHTu285xBNVlEP6BvOJ3ffcj9s1srNAaBJ2DXP9sGW5e5xOWnAMjDDiKuXs173P86eZy/NWMxdZjoWMzGZ7+VIAJ9Ft+IMYqJwIc3dLTqxrtuPOvUspq5SsaTHXKh5zJI7nR66SRM/Xd6PZVNLcf1nG0aeszP4gaBy7ubidCWw2N7s2PHAWHX9pVbTNfnwzpttm6YnPHLW12w/IvrfG5TxpbKYicZz0XN806w/CcH0+kBHVt5zjKwx1bBGIc5KG+dHHaw+bqQq3RCLU5UXpm/zxNDUkt78Dwm15S5zWFl4aBeLPQ2tZxWdxbLlh9lcZ/tTZEmy0M+PCOfFl/vg65Hbsxj/Urtq6NHy9Tdyhmmo3QgOLVHF4KqOKxQAq3jyfb13Tge85MrBCqRpb14HpIfj7lyPhP7ZmzbHCNTx65QAK7eMkjE49zsf6XwaR9KUe5xbR94nGT64coZvk68Ov7Wx/iwX/7xXjz92tcesW5xH8xW8Xe43Lc2fG0v97XOsthXK2NpawtSVwX9xfUdepzsL81tL+wqPh6HPrivM4L/k3cvx/Pk/vbe3CaeVmfdvb0qE2tH4b0Bzx1cX/oGBKgAACAASURBVLevUN9NGwuaB+rafrhxgG3Kv1cJe+fa3Jx3qerWmCDvi+VEafvqx0EYH1k05JCOqdzmz8qAsYjUsLycj6V7WHbm0fI842Z5W5eTim2U1nf9XN6DR+Q5n9Ywsqgx0Osk6rmqCjhkzwpcAcsG3HiAcIbJZOJtxJMIXLfWbRs4MyZuoFCxSMI35uS4gdUb3NjArX4QkvXi3QaetVpDfXyl4mntQQQAuK7ZWqWO6Lm4AZ+KppZj2wzGS7abhOSMN3FZGxb0LC1l3N5IzkQRte24MUWWtfIUdm/PbcpYUvL3GRP/bF1H3E/rYFr5P+03OVidFo6ylavAz54T+Am5Uu+5zXXnty45ETd78OQ+HpOrkCHroZVlxGYZv93lIskZDc+QF25zYf8OQ5aHj3lqHyLjjuWN9S+VnivHmNITd8rnqFwHgj2uF5zGYaMSaB1Ptq+vxpuGx+SYuu3F85D87PinjNfss9gy4Q0/98CNSTzfmitcz47nXJ63rp7Fni9xXX462R6v8GnqRu55VsZblvdyHHX87esXd2LaMn3/bBtHrFv+3LfknctZHC1eCb7YklzVZy7H0+py6j1Boh4LutxHu2UbtmVmvyU8XhuPvbK8ap39n+sg5z5exwFazimBbTzZJ/ffVrTgQYxh/idIXf21GMTinpMaWNDUbTOprmdPE/c8Dq+P165NO15z5y1/oX0r8y6PCTGbt7SUuuxbcLvKlnDc/jksVvtseQl9GFe/FJZIzmyjWEWJJONhRbKvWJk+2GgGHWsQrFTLyU1tgz4QZF+rsWKcVUhpycT2gLusU/SM+eASLWG0LyoZzcco5+APO/MxLCYs3UCxfG1dLBDosKPBaHr7Cb2ibh4AWT8qx7s6PIsqS//E0/DkMUufrCcabBNCz+1rzejGm7/Ptbcctx2Ml9bBEa81orTmoh3C0NGwH49ne6PLllbQhge/o5EWUBVy4EDFTM/xKHln+iky9hjzDtLw9KqcfsBjq3Mww76zjgg8eWC2WAUfFRbnSQZuzpy6x22uOoKnS2K7wT14ch+/kmuS7+J0muEwPbB1+YOErtzqXEeVF3XlOakHwQpTgbft7/wKULZPloePeSpvrJPBmGDb5fOO3qpM5n5aXrehX5TYowuLyjhRnQRax5Pty+k02wzPYdJ+5/lfGAnX9+2zOpiSGdqLJ/f/K/ktxiGFTVtG+BneGJk4di1Iu3qOd3pQ9+leN8r+leWBx8sFMTMHuPk6oB3WTxpHHQ2hbvpco7DDp/biyfVq2LJubdkWl3M47rPhGvqaysP1eDq9pFcmsZ9C/Ov3BKL8RszA9G0t7hTaUXgcC9Qa4Qo+wodkUoVfoNz1eBbo1I1JpuDJ4xWVfdKbFlhe8yoRY1NWt8W859kY+yVOr+U8YW1RnuT7FPsw2IG6lj83Bth+yTa5b3br2nTjdWTeZX7XxoSYzSv8WRYSdgiblJ/tc0VYulfxKzGrUC7hcaTTtp8S27CuPf5OZ9X76Ag/dFrDyKKWYogrtE+/pAo45EIImPtnt+ysikChnJyJlB0UeAIkMNnI+FyQRAhZqO2Y+18LXwsZS7lajCJYJOEbqavhq7VdOd614VmLXrXKRxKerJPCPmx/hU1Mc49zIJi2t7UTVGo5vll0jgy3bcdkaUfzvnReqHxYduu645kduTgfzM9iK2Tj6HHgan4NF1faJWOutNxyO8sr9ZxhLCQGfM7wb3VEjKXinFdWwZ5lIG+AbR1Bpx6JxDnhvsRLuCvcx6/kuqar1u6dzXpiVHQ3dZ61/o1tw0yULsgX4ivKcX9ZRtPWjRMLHmamF+dlG5Z+xN6tnLidRJmwjGRblETc8Zpa7qdDHHstS6B1PNn+vhpvlDmZ5THYAEhb6DL/qVyfIT9ug3mbtjvHrkWH3Jjn02Xfhn2mqaLOA5Wdy0XGRjNch+NtpKw/jjr+tuapRdfECe6bONXMrpW5J4Al+1zuWxteUqz3TBV4Wn1mWwm2IphKkkzyVdZosj9jy8y2Hx5rbUndCexOXroK8SrwvKrzHbabhif75YHdGL+a57Xl/T7Tpq0b6/R5wtqcVHKr/zy3Hai71/Ys1q5N2R+3z7yl30PZvvJ9ydxnnhccbZa3aMPy5e9QnbRffVgu+ytWaSm4pchJlfEuWts6q95Hr4CgYWRRYyGs1K/qkgVBGqzCoff00EDvxX1NH1TjSXIlOWPelfvkJ8wZEPrgrjvXwnvypVjqw3lePs8rVmhQonfxvsRHf00HPuNLyJ0H9G18qbJe17yuTNCcPiQ2D1BWP+rGuz48pbZhf68EUvDksY9twG9DOAxmbHTHZFNPYWfu6UiikFqOJ3DneLn2w1dhrHxHxDpX5GRoDsZkdw92UuyWy67x4Tha7NGTqs+HH2x+iON5ddE+GS9asSdS8LSFL9pR+2qfuvVxto5NMO+acVjoFiVijH7Ro1Sf16x3jJ1w1gM6F4kgudk9eB6V6/bcJmxWvi+AbcvOYdS9cB6j1arhXGcitIuP25raVh/IXjU/yrXhbJbK2WfpDs7DEXtfONWpMmF6fJMjt05P1xRjjy6s0cG1OiTQOp5Hxxuuz3Jw2zR7qANFxwXz786s73H/Pb/Kjnsp8+CWz0Lth2XkGJk6doX9cPW4z2ar3kdpPPDYxziHc4X4FtxivE0ZRx1/3nSvzlNh39wx982daWePdWv/yplpTp7m1BQdbEcm1eCZeE8wSTa0Dd2P2vTdQjsKj01jsbgFXZR2x3Z7LfbV4HmtGLppPR3PcE7T7vtTYgP6PKHec/LcYWMHB+rutj2G2LXJsjLbyLy7OSYYsjGbV2RsYiLbtk88pf+UdhbfRjsRy7WYVQQ3is+7e9DQtyFJKDKO0XqJ1cccm34H97Rz3OOobxNiZFFj5QoL4LgvCQBn4HmKBNTBLlfLblL0BsRc5C+kk98+U2WVWu5C4ZRs2izD5oncvwk+0mx+PI9wg7pHJQA8j0qwjvocLNMDsds3PNQL6EIdWObiAnjmkmQddIBneRxyjKOpXALPVEm1Ua56PAvdE+RBx92vbSX88rS3TaV6PLe7MAVutWBrUt2KCmWIv/SBZ0WYXMQK4djWz41tvcX3YjhoGFnUYIgxsfV1HjgDz6MS4Bsy1iWzDbPrGZyDOJ/9Dt4s03jf915JlVVqub3tt1SenxpBcqYl1M7kNb99nsk92mIJqHMYr85LvCMopQs6b/NKNO5Ay9uivsH3gimF5/ccoeYRCQDPI9JLq6uPVfNDLonjaFpLSIanyqmVcm3YZ/57giz42Dl0GDOb2dfs5cDTH09i92H+GyDyJqcuuA+2WMb6+wUkGWjmwPMLzlElswQIx7Z+F9jgxQLSMLKowRAvRuek5oHzSYI+qZnz8XQDJ7ctt9ZRzOAcxEXoeLDtxQuvXrHO4FFCq62kX2RZptfYKpkqq9RyW+3hupRAfjwldeyfLQHgebbES7U3LW33l79rr1ONt19KF+ycxMkiufVeVRfnrZYrti9yfi3qG3zf81J4fs8Rah6RAPA8Ir3UusfH0dSWgGeqpNooBzy/x8m+6olew/w9maw1c+Bp/YXZ5/FWNjO39pVWJZLAF9wHl/CHMtDMgSdDhu11EiAc2/pdYIMXC0jDyKIGQ7wYnZOaB84nCfqkZs7H0w2cznFy5+xTLBmcg7gIXXsy5hMvH79incGjhOJN7LpyPp672EPhnRIAnjsFVnlx4Fk5QCeyV0oXtDnp83ra16hVMlUlSVrrS1LFCwqVwvOCrqBJvHawOx2AffYFKfAEnqEE2F94PPi7zuErZt29vy2T1SFy9LOSDTta+jhD/AX2WRqkc+gTjvjVLQENI4saDLFu8HJxB5xzSbIOOufj6ZwXLTljzynOwfKj4cP4eL5G93ktpj1/ZFF8YFwvJ5Z02/bEOXqDbPBBL/ORcgMdt8XfGfGfwvm8X+PDti8+iFoY9vPxLNyhm5MHnn0pAPDsC88jvSmlCxygsA86GCbdB4CnoMF8TE/O2o+Wu0DGcq4NVwXx/DfNta8nB0PCOXmSUHwepesaLw8xf4o5lpi3c7X/Go/1Nsax9JxcCs8jOoa630sAeH4vuxprAs8aUfmeJ+D5vexqrJkDT/Z9Hq/X+JxXz3hJEus7PMfXa/ZZvAJr9/xOar6vIe/v2S8axufrPa75RUsfK/SdmNZGPMP2ac0fkjySL/Rc+FdejCRC00lgey8HntutoERpCRCO+NUtAQ0jixoMsW7wcnEHnHNJsg465+PJDocIuPAS5OfbJVoWzoELLjHPdmudqzhtU1YpN51ytG1yiEJGzyWPho55NUykLSJoeZf1XeCrJPIsk5JtgPZ5EgCe58n6jJaA5xlSbqONUrpg5y0x3705EDHwDbyb85iPYZjmKPvKE/k6NN4XNF/24QM5z8374vVplh+mwVtbRuNlX3Jms40T5mSWYxvaBy63JAA8tyTU1nXg2RZeW9wCzy0JtXU9B57sB9B9vPVjrM/i7um3rjMvdmt9Fbq9dw+i2OvWr4rEBdjnsbxoPs/sO9kyibSsb8O+3RaPCW0rNPdqE8tmbz2Ur0sChCN+dUtAw8iiBkOsG7xc3AHnXJKsg875eK47HLQyxfwU5+Dzfo8ft0zGrGox/FvHSdB+0NMmRIk+yBgGjFy559vty8SMS7A4h2f8sFPjzlnazDc1ye+0JR4MC+/xxfumc+X+nY9nub6AMj5i25sOwD57Q/T7/pTSBTsncUBAbu08xXPZMNIKGzetuvNyPnQBCZ773Lw50OqbmcCinDKPL+dR16bPiwumeKuAQprhMUESztUnzMml8Pxew1DziASA5xHp1VcXeNaHyRGOgOcR6dVXNwee7PsY32XhF7CfMfkw1ldhn2hRXvEjeJXvMIzWP/rQ/b3mF63FIMhFyRTPWPDN/YzxmND2guZ+fcmB5/5WUSO3BAhH/OqWgIaRRQ2GWDd4ubgDzrkkWQed8/F0QR3r3JjXh/HTKLOTozkHFHCx75IVT+sqyRn2t4yUbWCGX4HmeOD+U4DJBahEgkUGtsQ+02dn0AseCQeO6D9soqg85tyf8i2hhTMkADzPkPJ5bQDP82Rde0uldMHOSWK+Gh7+ay3sq8TsE5+ztHiunFfROBm6G/5p7nNzKM+FU9mgnKUn5mvB11SX63CAQ7TKD1bIRkLfYFcbEx8l5uRSeDppYO9MCQDPM6Vdvi3gWV7GZ7YAPM+Udvm2cuDJvs8UW3A+Ch3bZMx8r2+P2bdI8SOs7xF7E4Zrk8kayTFtGWfIFc+wPIWxkxiPc9JpLZYS0vwC/hx4ftEsqmSWAOGIX90S0DCyqMEQ6wTvL/+fX425/zRFqLP3/XGVG0uidy6eznmRyRkXLJq/+RI6B/ZYCfJYh8fRXneMZDkODImnTEht2JkSgSQe42jL9NkZ9JMzROAzvr3v1SwDT1SqfTz7s7EjPQKeR6RXX13gWR8mV3HUii7E5yQpOZ73gnnJznvhjT2X57lPzqEa3bmcpafM23YeZdoBL/LVojzhUlPWF5jLJ7VhKnpzcit4SuliPy4B4BmXTYtXgGeLqMV5Bp5x2bR4pUY82fexsQXrGzzH5/waVnYlvkrOCHrzOz4C6CJ+EdfjWIX1YRS/iMuMe2mF/lDow82sRtquEc9AuDjckAAw3BBQBZfPwgjJmQrAXmOBFCHnj+idG8zPyX37tNrH0zkc1oEy8Zan0auBn+S1DkTgcIjXg9FH+UzCZK8zEzo97Dhx26QmYfsR1WFn0EvO0Mf27Kti9P4yufbx5J5gSxIAnn3pAfDsC88jvWlFF9Q5adHxSELEznv+wwo2kGFX1Lh5zb3WjB5I4BWwc2DA0lsmXhxLEV5SkzMpbShzcit4Ojlhb00CwHNNOu1dA57tYbbGMfBck05712rEk30fF1tg34KTIC5hYX0al60ZH+ZhzBVfxfoawj8yrzV7jq/5Ner8LT4ma5DlGAPHKuyx5OfLeIblaebbHkd4jLRdI57tWcW1HAPDa+Wf0vpZGCE5k4LGhWVIEX77299m+yN6SM5cB2j7eIqgjrYqhT0a62AsHQ6TkJF12eEJky4Mk3VG+NVljgfXXBBUkoEh2ZbZlw4V15udPyLI7QX1uC1mi7bt4yl7g33g2ZcOAM++8DzSm1Z0gQMU3gMDi45z0GIZiLD1g/mL5l0X9HBz6GI+pnpisovT43k0zosNoDAvRDf0DVLmamVObgXPBXQ4oUoAeKpiafYk8GwWOpVx4KmKpdmTNeLJvobzU8R36wK/xPoWu3yVgB77JfbBTucXCbIuJsCxCuvDcNJIbLlMajzD0nK+HMvB983WYyk14tmscVzEODC8SPA7mj0LIyRndoByRVFShN/89rfZ/ogeDfj4XSOBHvBUHQd6J/5LfJhYcTg+9PSrcIaer9f4pOO9zozq9DinygWWPuP7+RBtsgPFQSXSgc/4eroEzeQUTvWsY7R437/TnR7wdL3BHvDsSweAZ194HulNK7pg51cvOhD2PJ4QWb6Sk+bY8Js1br6keZtfGUJznls1ym1uzaPrvCzmV8U3MDyvztXLObkVPFmK2K5LAHiuy6e1q8CzNcTW+QWe6/Jp7WqNeLLvI5Mz9LCktiJGS85s+xGEUujPUOyCv1gr/CL53jN+OMTGKsYxWzwjyR+SPOpt14hnazZxNb/A8GoEtts/CyMbpedA5DZrKHGmBIwi/Oa3428y/RE9JGfORNBvC3j68mj9CHi2jqDPP/D05dH6EfBsHcF8/EMXpCwjQQhZpPJ94Fk5QDvZA547BVZ5ceBZOUA72QOeOwVWeXHgWTlAO9kDnjsFVmFxYFghKAFLZ2GE5Ewg+NoOSRF+/evfZPsjekjOXIcy8LxO9iVaBp4lpHodTeB5nexLtAw8S0i1TZrQBYlbH8kZ+MYS07b3YZ9t4xdyDzxDibR9DDzbxi/kHniGEmn7GHi2jR9xfw8M3b0HLwox2/DtO5XCeRZGSM5UqgDMFinCP/36N9n+iB6SMyzd87fA83yZl2wReJaU7vm0gef5Mi/ZIvAsKd22aEMXJF7uBmn17WmySmX7wLMyQA6yAzwPCrCy6sCzMkAOsgM8DwqwsurAszJADrIDPA8KsILq98DQ3Xt4yRnxyQP7lsFETPh1iO6TBokVvyh2FkZIznwBzplVSBH+8Z9+ne2P6CE5cyaCflvA05dH60fAs3UEff6Bpy+P1o+AZ+sI5uMfupBPljVQAp41oJCPB+CZT5Y1UAKeNaCQjwfgmU+WNVACnjWgkI8H4JlPlldRugeGLjkjvy3lfcNJfNspBYuzkzNnxOSRnElB/sIyZKz/8I+/zvZH9JCcuQ5Q4Hmd7Eu0DDxLSPU6msDzOtmXaBl4lpBqmzShC23iFuMaeMYk0+Z54NkmbjGugWdMMm2eB55t4hbjGnjGJNPmeeDZJm6S63tgqCdnjBzeTxOfHobHyKtnTNLmMcznp+3j+Ro/poKj5a3CEa8D+Lye48OuyhnGx/M915WST98/CyMkZ9IxuaQkKcLf/8M/qX//x//1f4/892/+9/9z/NN//W/G/+Vf/a/jz/7H/1ktT3SIHpIzl0BpGgWe18m+RMvAs4RUr6MJPK+TfYmWgWcJqbZJE7rQJm4xroFnTDJtngeebeIW4xp4xiTT5nng2SZuMa6BZ0wybZ4Hnm3iJrm+B4YuoSJXzkxyeI/POZEy5VfcsZd8oTKmgKPlXZ+TM3ZFjUjOmHI7V+ZcgRGSM1LqFe6Tsf7d3/9T9O9/C5Iyz3/5P0TLEh2ih+TMdUADz+tkX6Jl4FlCqtfRBJ7Xyb5Ey8CzhFTbpAldaBO3GNfAMyaZNs8DzzZxi3ENPGOSafM88GwTtxjXwDMmmTbPA882cZNc3wNDl1BZJmfcNV788nm/x8+0TMaIilbChAkWm4ThSlTy85pXzLhVOOOHkz3inAQgYf8sjJCcSQDjyiKkCP/57/9x9Y9Wyvz0X/734x/9i/9utRzRIXpIzlyHKPC8TvYlWgaeJaR6HU3geZ3sS7QMPEtItU2a0IU2cYtxDTxjkmnzPPBsE7cY18AzJpk2zwPPNnGLcQ08Y5Jp8zzwbBM3yfU9MHQJmGVyhpMnw2jzLJRQeTymhIxcASNWv6jJGfuKNP+VaCaxMwj6EoCE/bMwQnImAYwri5Ai/Ke/+8fNv//6v/lvN8sQHaKH5Mx1iALP62RfomXgWUKq19EEntfJvkTLwLOEVNukCV1oE7cY18AzJpk2zwPPNnGLcQ08Y5Jp8zzwbBO3GNfAMyaZNs8DzzZxk1zfA8OV5IxNqMwrW+zqFyXBcmFy5oyYPJIz0jIq3Cdj/dv//A/Z/ogekjPXAQ08r5N9iZaBZwmpXkcTeF4n+xItA88SUm2TJnShTdxiXAPPmGTaPA8828QtxjXwjEmmzfPAs03cYlwDz5hk2jwPPNvETXJ9Dwz15Mzn/ZxfQzaMAydeOFnzeI7vWVCHXmsmhf3l/lkYITnzJUBnVSNF+I//6R+y/RE9JGfOQm/ZDvBcyqTlM8CzZfSWvAPPpUxaPgM8W0YvL+/QhbzyvJoa8LwagbztA8+88ryaGvC8GoG87QPPvPK8mhrwvBqBvO0Dz7zyvILaPTB0yRl+xZi/dYkY992Y9ZUzn1fw2rP5nWj2dWfydWhmX7SxE+izMEJyZicwZxcnRfibv/37bH9ED8mZs1F07QFPJ4se9oBnDyi6PgBPJ4se9oBnDyjm6QN0IY8ca6ECPGtBIg8fwDOPHGuhAjxrQSIPH8AzjxxroQI8a0EiDx/AM48cr6RyDwwjyZnHY3y+3uMnAMBbUTNQmdf4pAQLr64x5T/j6+kSNO5bNp/x/Xy4FTk2SXMsOXNGTB7JmUARajskY/3//vbvs/0RPSRnrkMZeF4n+xItA88SUr2OJvC8TvYlWgaeJaTaJk3oQpu4xbgGnjHJtHkeeLaJW4xr4BmTTJvngWebuMW4Bp4xybR5Hni2iZvkGhhKadS5fxZGSM7Uib/lihThP/zHv8v2R/SQnLHiPX0HeJ4u8qINAs+i4j2dOPA8XeRFGwSeRcXbFHHoQlNwbTILPDdF1FQB4NkUXJvMAs9NETVVAHg2Bdcms8BzU0RNFQCeTcGlMgsMVbFUdfIsjJCcqQr2JTNGEf7m78b/kOmP6CE5s5TzWWeA51mSPqcd4HmOnM9qBXieJelz2gGe58i5hVagCy2glM4j8EyXVQslgWcLKKXzCDzTZdVCSeDZAkrpPALPdFm1UBJ4toDSOo/AcF0+NVw9CyMkZ2pAe4UHUoR//zd/l+2P6CE5syLwwpeAZ2EBn0weeJ4s8MLNAc/CAj6ZPPA8WeAVNwddqBicL1gDnl8IreIqwLNicL5gDXh+IbSKqwDPisH5gjXg+YXQKq4CPCsGJ5E1YJgoqAuLnYURkjMXgpzSNClC7j8kZ1IkX6ZMbiyJHvAsg1UKVeCZIqV2ygDPdrBK4RR4pkjpHmWgC33hDDyB55YOwDe+Tke2sPnmOvAEntdJoK+Wv7G/rTqwz+t0ZAubb64Dz3Px/AajrTrAMC+GW/L+5rqGEZIzeXGrnhopgaYI1TMOBlUJAE9VLM2eBJ7NQqcyDjxVsTR7Eng2C112xqEL2UV6KUHgean4szcOPLOL9FKCwPNS8WdvHHhmF+mlBIHnpeLP3jjwzC7SSwgSjvjVLQENI4saGyK2U/ICcoAcWtKBv/zLvxzpj384blMerHPAr038QvsDnpNEetFn4NkXnqG97jlmXaA6vej3nv5Tn/nXQ/+BJ/DsSZ9hn33pM/AEnjWPT5g/+9JPxhNbxEKhA+V1gMd23trkDJ0gAPDrXwLAuS+MCc9/+9d/hr9OZEA3YcCzH30mPH/883+Hv05kADyhy2zP0IW+dAF4Ak+2bWzr0wXYZ32YHLET4Ak8j+gP6pbVH8QK248VAsP6MdQw8rIxWoH6uwUO90oAOO+VWN3lCU8ZzP+f/t/f947lNdrH9brlQzcsIWbyGPjVjV+ID25Ay95AnH2DBjz7wvOI/kAX+tIF4Ak8j4wHqFtWf2CfZeV7tv4CT+B5ts6hvXSdQ6yw7thfCnfAMEVK15bRMEJy5lpMLmldU4RLGEGjWSRAeMrgPfbbXnVBSgEM28ZQ4kd44oYg/YagdlkBz36wPKpr0IW+dAF4As+jYwLql9Mh2Gc52V6ht8ATeF6hd2gzTe8QK6QRqu0fMKwfPw0jJGfqxy07h5oiZG8EBE+TAOEpg8HhfvgkP677gf/a5EOKIzGqjT/JG+2Dv/WVPIQnbgbSbgZakBPw7AfLo/oGXehLF4An8Dw6JqB+OR2CfZaT7RV6CzyB5xV6hzbT9A6xQhqh2v4Bw/rx0zBCcqZ+3LJzqClC9kZA8DQJEJ5hwBzHfgKmJXnQUv+W+AWv67qGVzek3Qi0csMEPPvC84jeQRf60gXgCTyPjAeoW1Z/YJ9l5Xu2/gJP4Hm2zqG9dJ1DrPC0MF6xhoBhMdFmI6xhhORMNvG2Q0hThHa4B6ehBAhPGSDHSob1lQy1y4duWCSe4X7t/IM/X/9wA5p+M9DCjRPw7AvPIzoHXehLF4An8DwyHqBuWf2BfZaV79n6CzyB59k6h/bSdQ6xwjDa1t4xMKwfMw0jJGfqxy07h5oiZG+kWoKf8fUYxuHxGj/V8riPMcIzDODjeH01Q83yIfRr5g+87dMtwhM3BOk3BLXLCnj2g+VRXYMu9KULwBN4Hh0TUL+cDsE+y8n2Cr0FnsDzCr1Dm2l6d+9YIY1O7f+AYf0YahglJWc+r8dIle3f873obUoZU+n9nOgoNBZEcaKIBDRFKNJQQHShI6RT2fRgTrpIPQ33TVv3S870spLhz//4B9PY8bt/MP75X7sAeS/946QHmQ3v07av/v10/HFgl//Vv/ZXmsi+99B/whM3A2k3Ay3I6gzS2AAAIABJREFUCXj2g+VRfYMu9KULwBN4Hh0TUL+cDsE+y8n2Cr0FnsDzCr1Dm2l6lzdW+B6fwb3/MvyXUoZGDeXHseXhOS4j1BPdx+vMR7LT+rKIiy6FonQ2/dQxDFP6kFImwi8wM4LRMNpMzkyK8xidTs9ACAVKKTOOQfBc1I/AhtOFJKApQqGmZrKMvdQjusRGrQ2mBzkyRh+2d5BmpdUJzzCg3d3xr/5g/J3hB+OP//AH4xAkZ3rrKy31761PU3/+dPyj3x3GH/+FS6z9yR9OSX95rre+49UNaTcCrdwwAc++8Dyid9CFvnQBeALPI+MB6pbVH9hnWfmerb/AE3ierXNoL13n8sUKpxigDPu+n9O9vzuXUiYehPOSHI7oXGGKNZ6XnEnrS1rsPN7nlCvfY5jSh5QycS6B2SQbDaON5Iyu0JNAOaCeUmYcnRJOYOZbMREHHld0CWiKoJfMc9Zhr9D7vMYHZdMXg6lSds+pGydn+lppQYH8Kaj/O3/8p6NZPfNf/nNv5UwYzG+9/3TDEvZJHrfeP49/k3QbRsKW++hdFyukWr2OG9D0m4EWbpyAZ194HtE56EJfugA8geeR8QB1y+oP7LOsfM/WX+AJPM/WObSXrnNFY4Vz7G81YZJSZo4Lclz6Zd70FD6Yrcep94QUD5dd9EXnifuxXP3zHQdZMVz0QeEppcxcjft6d8w0jNaTM7OQF3HzeSmSOZ9SxsMPyRlPHBccaIpQjo1tvKcMOif7xtEcP99zQm9+nd7eb8SsJGcMfUFvtb1Z10lm6ndq5PVYmXLCNZSJNw5c97idXmf2e+Of/PWfTcmZzlfOEKg94qj2SUnOqOWUJE0r5QhP3BCk3xDULivg2Q+WR3UNutCXLgBP4Hl0TED9cjoE+ywn2yv0FngCzyv0Dm2m6V3RWGFKED+lDA0iIy8AoDjiHHMUMT5+S88iETTTN/G9+ZVrMt4dxibnpqYYpUefr6xsw77Mx7I9U1vG11fIpV7KimHYB42JlDJzPU7O3B0zDaP15EwswC2VKqWMB+B2sN4rjoPsEtAUIXsjlqCeHbaX7aDqMt3TgChX02zTkPTMfkwv6WVqtJxSDKyx9syAbUfOJQ9uYOHWtUmBr5XbEp9rgeqmVyL86g/Gfza4V2GZRE2QnGm6f8o3ZUhTJJ699U/27d/+xe+Z7witvdas9f4TnrgZSLsZaEFOwLMfLI/qG3ShL10AnsDz6JiA+uV0CPZZTrZX6C3wBJ5X6B3aTNO7orHClCREShkaRGwccX7Ie1FvGb8bF2VMcNDEI2wSRyszf47Blpnb39yEtMyxi3va+jK+bk9+v5MVw7APGlspZeZ6Xgx1Ue8+mGkYITmjKVfn5zRFKNblhCzqZKBukDLJEpsUmTgLEyqb/MYGvlhyRiRriLbWnn9uGjgCNqniOAyuL5t8ZihAeHoB74ZXGYT9MN8k+cOf2v5pyZmwTuvHtNS/9T6k8f/T8cf0tEqQbEur675bU3t5vLoh7UaglRsm4NkXnkf0DrrQly4AT+B5ZDxA3bL6A/ssK9+z9Rd4As+zdQ7tpetcuVjhFD+TD0kvQ2EpZVwtL9DPMbyB38gTBvrjiwRMnM/Wm8p5iRgT42O6rv31PaUvsVhhtckZpQ+LTqeUcZWA2SQLzc6QnHF6cps9TRHKdT4cFJctqQYaZD28xIgZ1ObXnZmliMpAGRv4eNAWyRiP9sze5rl5ACVZLv+uTc60vtLA8m9WVUyvM+MAPL4582ejlU8kCdfKdZN4G34w/tGv/ERLK/yzTobbkH/cgKbfDLRw4wQ8+8LziM5BF/rSBeAJPI+MB6hbVn9gn2Xle7b+Ak/gebbOob10nSsVK5wSIOtxMrXMSuwvjCOO3oPhYRxyOg7CjFP0L4gdGrphvJArrvAjI53xvigyqDQ5o/ZBdpJjq+HD6SsyAmaTADU7W0/OxJREKm9KGQ/AeMbSK4aDYhLQFKFYY/z+Rx7MlIaM0ccGv7l8WEYh45+SOupfWayK0WhvnovpfdDWGYeEZxgg7uF4Ct5rya/pnPyIfA/95T6QzvB+r9tYYqbH/hKeuCFIvyGoXVbAsx8sj+oadKEvXQCewPPomID65XQI9llOtlfoLfAEnlfoHdpM07sSsUITWwsD+DQQiF9KGVHc7C4C/fZVZ5QACZIza/E7EzsUD3ybspxEWUnqhAzNx9G+xHhYiV1Gmlg9nQPDaB9EyyllRHGzC8wmiWgYrSdnIu/W8wUaKP0sfb+MhATJGSmNK/Y1RSjJx6rRzgOUXDZoygfJHHNOJHA2+V0Z4EJa4THR3j6n6/0mXwUKEJ5rQe3wSf6wbEvXtdeatcR/KHs6DvknFZHlwuvymla/9uucdOPvzPTWv1D+hCduBtJuBlqQE/DsB8uj+gZd6EsXgCfwPDomoH45HYJ9lpPtFXoLPIHnFXqHNtP0Lnes0MTVhmEMwns0DNhfShlbWOzoMecpTjc8n+NzGEYXZ+Tzb0Fh2l3G/sSrzSiuuCMOud4XPYao92PBZvKJoxiu90HIbANXjWG9r4zNfTDTMNpIzsxBapnljAXTN8o4YJCccbK4Zk9ThLKczMZm3+M4tzbrUjjYmcEgGL2XA+YGx8WTM+M4DSycUZ/52Tl4b/Qi6TLhGQaEez3WkjO99ZWW+vfWJ+6PwW8YRk7M8Pmet3h1Q9qNQCs3TMCzLzyP6B10oS9dAJ7A88h4gLpl9Qf2WVa+Z+sv8ASeZ+sc2kvXuZyxwiletp6YSSkTC4rpgX7zpLX99IBLznD8LuDHxA2Dc9TgHNd7PWWCJ8bJdD6lL1PiQ8QQlfj6eivbV49gmNKHlDIxLoHZJBkNo83kDFXlzBkRoD+p4Cz0rTIMINNwW7F8jIlhW1QCJPsrfqGOrOpSA8kZkuFCr3dk1XNhQHKUwe2eVyLgmzPLlTYSe9qvF/+fjj9Wv9FE84r79ky9/E/fxtnLH25A028GWrhxAp594XlE56ALfekC8ASeR8YD1C2rP7DPsvI9W3+BJ/A8W+fQXrrO5YsV8gPa2mvqOTmRUiYeNYsG+kUMOwgrTkkXLybBvITtMG+x67Hya/2d6oRxUS2+HlLfc/w9htzntT6klIlzC8wm2WgYeVF6rUBcrLjSqgSAc6vI6XwTnmGAHsf+R+Zbkgeh3BK/4HVd1whP3BCk3xDULivg2Q+WR3UNutCXLgBP4Hl0TED9cjoE+ywn2yv0FngCzyv0Dm2m6R1ihTRCtf0DhvXjp2GE5Ez9uGXnUFOE7I2A4GkSIDzXAuR7n/QPaaH+758qX1IciQHkf678pexp/6j8CU/cDKTdDLQgJ+DZD5ZH9Q260JcuAE/geXRMQP1yOgT7LCfbK/QWeALPK/QObabpHWKFNEK1/QOG9eOnYYTkTP24ZedQU4TsjYDgaRIgPMOAMo7XVzPULB9a6l8zf+Btn27h1Q1pNwKt3DABz77wPKJ30IW+dAF4As8j4wHqltUf2GdZ+Z6tv8ATeJ6tc2gvXecQKzwtjFesIWBYTLTZCGsYITmTTbztENIUoR3uwWkoAcJTBsyPPumP+teu1KAbFolnuA98rsVnr/xxA5p+M9DCjRPw7AvPIzoHXehLF4An8DwyHqBuWf2BfZaV79n6CzyB59k6h/bSdQ6xwjDa1t4xMKwfMw0jJGfqxy07h5oiZG8EBE+TAOEZBvBxvG91Q03yIsWpiR/wckyXCE/cEKTfENQuK+DZD5ZHdQ260JcuAE/geXRMQP1yOgT7LCfbK/QWeALPK/QObabpHWKFNEK1/QOG9eOnYbRIzlAh/EEG0IG2dICeQKI//uEY8oA+wB4wHkwSwHiI8RDjIcZDjIcYD0kCmA8wH2A+wHyA+QDzAeaD+HyIOGBbcUDg1S5ePBfxdpGc4QvY9isBMmD8+pEA4YknQdKeBGlBTnTT2AKf4DFN54Bnmpxa0Sfg2ReeR/QOutCXLgBP4HlkPEDdsvoD+ywr37P1l/DEyvxjK/Nrkh/ssy/7RKyw/TghMKwfQw0jL0qvFai/W+BwrwSA816J1V2e8DzbqUZ75ZwwOLjlZHuF3gJP4HmF3qHN8noH2y4v4zP1GHgCzzP1DW3t0zfY5z551a5fhGeYXNj7TUfU95M7V8oP9tmXfSJWWHfsL4U7YJgipWvLaBghOXMtJpe0rinCJYyg0SwSIDxrd8LBX7rTRkoBeaXLq3ZZAc9+sCRdA5594Xlk/IAu9KULwBN4HhkPULes/sA+y8r3bP0lPMPkCo79ZEtL8oB99mWfiBWSRrf9A4b146dhhORM/bhl51BThOyNgOBpEiA8z3aq0V45J4wUB/ItJ9+zZQs8+8GSdAd49oXnkfEAutCXLgBP4HlkPEDdsvoD+ywr37P1l/C8cqUHJT7Q/u+vJsj2yAf22Zd9IlZIGt32DxjWj5+GEZIz9eOWnUNNEbI3AoKnSYDwPNupRnvlnDAsDS8n2yv0FngCzyv0Dm2W1zvYdnkZn6nHwBN4nqlvaGufvsE+98mrdv0iPFtaGQJe11f1wD77sk/ECk8L4xVrCBgWE202whpGSM5kE287hDRFaId7cBpKgPCs3QkHf+lOGxzcdFm1oFfAE3i2oKfgcb+ewrb3y6xmPQOewLNm/bw7b7DP/uwzTHjsWakR1qVj1M+3EmavfGGffdknYoVhtK29Y2BYP2YaRkjO1I9bdg41RcjeSLUEP+PrMYzD4zV+quVxH2OE591v2nrqP6HfU3/u3hfg2dcNC/DsC88j4xN0oS9dAJ7A88h4gLpl9Qf2WVa+Z+sv4aklAHBufYVKrfKBffZln/eOFZI2t/8DhvVjqGGUnpz5vMbHMIxEhP8eLyW8nVru/ZzoPN/7JbdR9/N6WB4Nr0ob22Xe41P0legoZMZcdPYL4fsa1JcrfgtZkXw1oX7F3Jx0CTBjXXV6gOTM2Q442tvnsJH6Q2b7ZFazvIBnP1iSngHPvvA8MnZAF/rSBeAJPI+MB6hbVn9gn2Xle7b+Ep79rnT56fjjIB7x479YJl166j/ssy/7zBsrTImpppQhLVN+HBcenuMyqjzRVWPWCqk8p9L6soiLZouJTr04hmHhPgAzA5KGkRel1wpQzfdzSsj4OjMFuaWyp5ULgug+0Q2b2K47KfpjdHmjWblEO9tlpnZEFVUGuehsdDr75RjO2RuyBBk3iQtdZMPXBlNb+bsdY/Rhe9+Rqr0W4Xm2U432yjlhWBpeTrZX6C3wBJ5X6B3aLK93sO3yMj5Tj4En8DxT39DWPn2Dfe6TV+36RXjWugrkGF9/Ov7R7w6jTMb8yR9OcTR57lgby0TP1fRgn33ZZ75YYVpMlWLIy7hrWhzPS3JIIiaAN8UaZby6bFwvrb/bMeTjXH6PYfk+ALMJXw2j7eTMnNla6HqoM4nlnDLOAftNwq6h7bq6AU71OAGQUsa1affmFUHOuHPRsS2ctqMpQsnGHW5KK7zSaoceKFSWp5CcQcLm5206SnBw28QtdiMMPIFnTDdwvm3dgG23jV9of8ATeIY6geN6dAL2WQ8WOeyC8AwTCj2tJPH69qs/GH9nGMZ/9i9+tOizLNdy/2Gffdln0VjhIqa6DOONKWXmahznfZk3J4UJHT1eq7RY7tSiLzpP3I/l6p/vWMuKYeY+cF/vjpmG0UZyZk6gbH6fI7WcVK79yRlXO1J3VpxFnF8mjlLKuIbcXqiUuei4Fk7b0xShXOMRrESD04orTp7NK7Web/+VcZs6KAjS7kpyxrQn6JnjWHuz7pDM1O/UyOuxMgFruQ+JtxyOMmjU4ViRfgCLOrDIgQPw7AdL0gfg2ReeR2wcutCXLgBP4HlkPEDdsvoD+ywr37P1l/CUiYmu9+fkzO/88Z9222fYZ1/2WTRWGMZUSXnCXyzOGpYbxzleSHFELR6tJ0I4+WPie/MrCGX8OIxNcrNhDJHPr27D/sb6JuPVqwTTLmbFMHMfODlzd8w0jDaSM5NCb38XJLWcVKbtoL0s7e9H6sYC8tIIUsr4jU1HocHkoqO1VficpgjlmowMiqLByUBdpnsaEOX3aLZpCHLTbgwffk1fmJyhgdmOyrM+K+fcyik5GXDr2qTA18ptCc+znWq0V84JI02BfMvJ92zZAs9+sCTdAZ594XlkPIAu9KULwBN4HhkPULes/sA+y8r3bP0lPFteKULJpGT+/+L3zLeQw9eaJdf/a/01ZjXVh332ZZ9FY4VhTJWUx/vti6e5QD8/nC1fkabEELX253M2zqeVmT/HYMt4PK8chLTMsYt72poyXm1Pfr+TFcPMfQBmE64aRknJmW0lVBR/U5ciCZbNelQgUjdF2VPKLHiYg/UioB9dmbFqWAqdRVvlT2iKUKzVMNOqNKQmZ2yiZKqwO1MdwzmWnJHYKmWIC5+HCcuAzdUVO0rXs5wiPM92qtFeOScMS8PLyfYKvQWewPMKvUOb5fUOtl1exmfqMfAEnmfqG9rap2+wz33yql2/CM+uV8vYhMpPxx/Tw56/+wfjn9tzerKlZXnAPvuyz3KxwlgsdI7tzqtYhsG9UWcrWOYF+jleZ+tP7blYdiSGvKg3lXP1TIFxD18T30p/YzHK1RjylhSW1/NhmL8PwGzCS8MoKTnjVhQsgZ/OzKAtItWx8nQ+YhxGYacPpxHDuhGs1d3IRH5hENNKjoBuLjprIip0TVOEQk3RSDY+h2H0BregMdVAA13yEiMpOhLDhwdfkYzxaM+8bZ6bB9BJR6W+0n6gK0F/cx8SD7U74eAv3WmDg5suqxb0CngCzxb0FDzu11PY9n6Z1axnwBN41qyfd+cN9tmffYbJiJpWgoS80fE3/P3JH1Jc4AfjH/3qu/qSj2/aP6s+7LMv+ywVK1RjqkpgbIoNivjhSuwvjCPyK8um2GMYh5yOgzDjxEEQOzR0w3ghV1zhR3ZH7W/Qji1faXLm6z6syAiYTahrdraRnJmTIEIxrQJ5O6nlZKVIgkUWie5H6saUWhpBShnRrqqQdD0XHdHWWbuaIpRrO4KVaNDIWOiYOebBby4XlhHV9V2JeVAipBUeU/HNczH8g7bOOERypi+HiHTm7jfhPfUfeMI+e9Jn9MXpM2zbyaIHvQCewLMHPe61D7DP/uxTJg563JeJmR77J/sE++zLPkvECk1sLfkB5jl+aFfAkIbpv0Wg336Hhh6WDpIza/E7EzsUK3ZMWX7geiWpo7M1xRK1/sZ4WIldRppYPZ0DwyhmB/sAzCboNIw2kjP8XQ357j5dDyYhb5dztbeD9q5suBerGxjgXM1XgJQyU8VJIWN9ykUn7Fv5Y00RSrYaNWxqdDZuubLGlK89OZOwIqikTCVtwrPXm7E79ouwvWO/e+0z8OzrhgV49oXnkXEHutCXLgBP4HlkPEDdsvoD+ywr37P1l/CseSUIJR6O8DclZoYx/M6MTGgcoX+Uv9z1YZ992WfuWOF6TJW0J/zNsV7x8HZYgo/9OC+fneK0w/MZvMGHz7+5oN0aHr32Jh5MjJISJ941W03dWe9vegxZJZ548iiGJfsAzCYQNYw2kzP29WPDMklBoLmg+mxEm+VYo2IJFr6+to3XnRSJs5wrwX+ZyVQSBCnJppS2Uuis9bTENU0RSrTjaM4DYZj9nuUeDnZGrtUnZzhxKXSNOrxz8HYy+n6P8DzbqUZ75ZwwLA0vJ9sr9BZ4As8r9A5tltc72HZ5GZ+px8ATeJ6pb2hrn77BPvfJq3b9IjxloqKn/T//4x+M5t78L/r7tkwMJ9hnX/aZM1a4HQulOKFYscLxtI3PInDkTA/0zzG5+Rs2Ll7N8bsgrm1WrQTnmI/Ha3x5MW9uWd9u93d+Q89GLFqnnn72CIal+wDMJhw1jBKSM1NlBomI8J9UdFaVrXLa9YleYJRMUGxT605Jk3U+18twMsHR4D6H3xPJRUd0s/gu9eWKXygr4kPTIVOugeQMyXChkzuy6rkwIDnW7oSDv3SnDQ5uuqxa0CvgCTxb0FPwuF9PYdv7ZVazngFP4Fmzft6dN9hnf/YZBvr7WEny0/HHIlbm4kcUU/ovzLdnwn7zccv9h332ZZ/5YoVpMdVFPE152D8WN5vq6nFkjj0GYcXpYWrPToOHrW1jzH/sui0473D5ozHkkO7+4+8xLN8HYDbhqWHkRem1AvtVATVqlwBwrh2hffwRnne/aeup/4R+T/25e1+AZ183LMCzLzyPjE/Qhb50AXgCzyPjAeqW1R/YZ1n5nq2/hCcnJbBtf4UN7LMv+0SskDS67R8wrB8/DSMkZ+rHLTuHmiJkbwQET5MA4Xm2U432yjlhpDiQbzn5ni1b4NkPlqQ7wLMvPI+MB9CFvnQBeALPI+MB6pbVH9hnWfmerb+EZ8srRSihBP5/3ybYYJ992SdihaTRbf+AYf34aRghOVM/btk51BQheyMgeJoECM+znWq0V84Jw9LwcrK9Qm+BJ/C8Qu/QZnm9g22Xl/GZegw8geeZ+oa29ukb7HOfvGrXL8ITK2baXzHDGMI++7JPxApPC+MVawgYFhNtNsIaRkjOZBNvO4Q0RWiHe3AaSoDwrN0JB3/pThsc3HRZtaBXwBN4tqCn4HG/nsK298usZj0DnsCzZv28O2+wz/7skwP7vMVKFLcShWUitzXLB/bZl30iVhhG29o7Bob1Y6ZhhORM/bhl51BThOyNgOBpEiA8737T1lP/SXF66s/d+wI8+7phAZ594XlkfIIu9KULwBN4HhkPULes/sA+y8r3bP0lPGXiAfttr6KBffZln4gVkka3/QOG9eOnYbRIzlAh/EEG0IG2dICeWKE//uEY8oA+wB4wHkwSwHiI8RDjIcZDjIcYD0kCmA8wH2A+wHyA+QDzAeaD+HyIOGBbcUDg1S5ePBfxdpGc4QvY9isBMmD8+pEA4Xn2E09or9wTMnTTCPmWk+/ZsgWe/WBJugM8+8LzyHgAXehLFwjP8ZcD/jqRAeyzP/s8Ml6jbl36APusC4+j9gE8+8ITscL244TAsH4MNYy8KL1WoP5ugcO9EgDOeyVWd3nC86hThfr1OFVwcOvBIoddAE/gmUOPQKM+PYJt14fJETshPJGc6Sc5Bfvszz6P2Dfq1qUPsM+68DhqH8CzLzwRK6w79pfCHTBMkdK1ZTSMkJy5FpNLWtcU4RJG0GgWCRCeR50q1K/HqSKlAB714HEUC+DZD5akC8CzLzyP2Dd0oS9dMMbdyaoRJJmm29sj9o26ddk3xtu68DhqH8ATeB7VIdQvp0OIFRqPsOl/wLB++DSMkJypH7fsHGqKkL0REDxNAoQnHJRyDsrZsiXFObtNtFdOf4BnOdleobfAsy88j+gQdKEvXSA8kdToZ+UM7LM/+zwyXqNuXfoA+6wLj6P2ATz7whOxQtLotn/AsH78NIyQnKkft+wcaoqQvREQPE0ChOdRpwr163GqsDS8Hixy2AXwBJ459Ag06tMj2HZ9mByxE8ITyZl+kjOwz/7s84h9o25d+gD7rAuPo/YBPPvCE7HC08J4xRoChsVEm42whhGSM9nE2w4hTRHa4R6chhIgPI86Vahfj1MFB7ceLHLYBfAEnjn0CDTq0yPYdn2YHLETwhPJGSRnjugQ6pYbEzDelpPtFXoLPIHnFXqHNtP0DrHCMNrW3jEwrB8zDSMkZ+rHLTuHmiJkb6Qlgu/nOA7DOD5eLXFteSU84WykORstyImAbYFP8Jimc8AzTU6t6BPw7AvPI3oHXehLFwhPJGf6Sc7APvuzzyPjNerWpQ+wz7rwOGofwLMvPBErJI1u+wcM68dPwygxOfMZRwpgP4YpiG0C2Y9xfH+CXu8o93zMtJ4Bja3Dzzhu1X3NwXbik/6eStB9q8znLdohOo9xfL6XzG3ReQqZMT+0fYWyW5IudUZThFJtTXQ/40hykvpj5Pkax+vE4LqM5AySAT+vx6kixTzqJKM+8IQOlNEB2GcZubaor9CFvnTBOIW/7Cg5EfTlOQwj+f/89/xZv301STb4Ul35khhv+xtvW5z3wbOuh7BPXS6t6kveWOF7XPgfSkj183pY/8T4KVrc1Thqwb/3c673HJdkp7Yfp8ZdC/c36H7s8BiGaX0wbbP8U/GiSlxnuDdmGkYJyZlPEFSXyYaHCK4nluNAuE1U7EjOpNSNJUPkqojNMm+XhLJ8cqJHmP0mnXEcY2VOHSR8s9UUwS+R8+i9oj9z0uvqBA3rldSRnCIoTIvwbHXyB99LZw5L/ZcyaVlPgCfwbFl/wXtcf2Hbcdm0qDeEZ68rZ94/GkaZjKFj8h1fv+g3QQP77M8+WxxXwLOuh7BPXS6t6gvw7AvPfLHCz/h6DN7z7e/n5H/IWP6UmHmIZ9fn5IAsFImneUmdRfmzkzPl+xsRw+L09xim9YGSAIQttWP+FrJfsGRPALNJFBpG28mZF69wodUeIjFBK0seIjmTWo6SFbSSxa442ZGc2ar7ebmkCq/q4cA7rdSgJEBKGcq7Pp5uZZCsM8z8ynOxtkjunJwRorOaedGOpgjFWOH+k/xZTtTYW2B1dVKEdeRqPr4EgfBs1ZkD30tnDg7uUiYt6wnwBJ4t6y94j+svbDsumxb1hvDsNTmz6NcvhvExDOPjJ0jOtKird+QZ421/4+0d9bjXPsM++7LPorHCz2vyP+yD6noCZQrgaysr/IAZl3uZlTcywWMCjmbVzrkrZ3z+KPZs/K1M/Q2oRw+zYrjoA4XUaaUTyXtO0uxOzjzHu2OmYbSRnBErSFYFnlpO6A8HxDnZIS5t7sbqqucFb5QgSSmzYECuCpqTM6l0ODlxy+SMkL0dkIRwbUJvTpyxrEJd43LyvE3uKSuaKLlGK54o2bLASb4Wj8o8XaLQJmcE3hI3pmXLzX1Z5UX0t9AukjN9OUSkJr0673fsF/CEfd5R7+/QZ9h2f7a9SGIErwbr5vqcnJGrabrpG2MGX6r1Lts6AAAgAElEQVQrXxLjbX/j7R38hLv0EfbZl31qQWPCOMsvDPTPxzLMZ9qZX321OB8wwcmZN6/keLzEVxP0xA8nTKif/CfbmVb3LBND5rxHP2BGO8zcX60J7VxWDMM+eA1+n5y5O2YaRuvJGW91iIeCf5BaTtbiQHfO5AwH8b3guQi0U4IgpYzk0+yLJANbbiodTjjI16Np38BZtFnuhKYIRVqzGIsVVrKhUG9sebmaSuDHiRJNppyMMfQFXlbuM81YXa++0ibRZf6kfsXoyTKyzwX2Cc+7OH936CepyB36eZc+As++bliAZ194HhmHoAt96QLh2V2CghMVwfb1w2EcfjiMn+B8V/2HL9WVL4nxtr/x9sj8i7p16QPssy48jtpH0VhhmHQxx+GKl+ltR7TihEOvxkdT/rnkjPuWiaujJGfC9onmfM6usNHKjAothZ/FqZCWOf6+vwv6kRNZMQz74LV5JDnjZH9HzDSMEpMzkeA6A2OD7BvluDxtOdAdJmc46REG1ffU9QLjItD+bXLGBuBF0oD5XGuLeLZ15bd65lUdsk8n7muKUKR5i3FEL6zeDOP0BS+RVOFEjKUxy97WETTpFXtGX/gcH9Mr9JgQ9VCc55U85vV8MzYWS6EzXvWnW5FD5JJ4KSJZjyjheXQSRv16nCosDa8Hixx2ATyBZw49Ao369Ai2XR8mR+yE8OwqOREkXkxCRjwl+g6u99Z32Gd/9nnEvlG3Ln2AfdaFx1H7AJ594VkuVjglOAa5+uRgssJLzpgQM62G4VUvYUIlnkjwV8tM5WyyxoQRn4KuF4pbOcjf35XGvEv5MFT64LUUl6lXTBwAs0kYGkaJyRkOngupyl0bpN4oJ+uEQXe+xkmPWpIzlh8O/M+M8nkb0KfzIqjPwX/ul9nSK7U4SRPQ88qVPdAUoUiLFuNIX63eiOssH06qhMeWJssx2JpkCidhBF3qoG1PJNnoPNO0WAoc15IzXM/qqsZLEcl6RAnPo04V6tfjVMHBrQeLHHYBPIFnDj0Cjfr0CLZdHyZH7ITw7C1BEevP5yfTqzzwzZm+dPiI/tdeF+NtX7oKPIFn7WPOnfkrFSucEiDBqpGU5My8coP4mv44+cLfPnHH/MqyKbESJmemYw4zegG1gA+TQBBJJMM7V1zhR9L8ur+SyJf7uTBU++DxFEnOrMgoTM7cFTMNo/XkjFxpwMrogcEHHAwPVyrwdWVrA9tBoFwpujgVq6ueF7xRoD2ljGlQfpskCPLT9WQ6Afc2QaDQDIqWOtQUoUhbtq+RpB0nuOTqKZYrJUpsfSErvr6aEGHMRT3qoKUX6BzTRHIGSZ6fX+8sk6re2SHsre/A83qbyqlTwLMvPI/oBnShL10gPGPJjB7P80qablfQwJfqypfEeNvfeHtk/kXduvQB9lkXHkfto0SsMBrkX/3mTJDIMY6a/28R6DchP/5YfZCcibVFJE0yIUzycPsrSR2fHXtUqr+2gY2dHBhG++C1HUnOeGX8A2A2yUPDaCM5E7yWS64GMa+DEsFvXuFAQfO1cowNB8RlYJ6vbW1jdW3wnZIBn4mKLTvzmlKGatr+PM2CmAVLKXSojEkycG25ciZIEHCRE7aaIpRpVqxAGR4OE2rM4hIm9ERi5fnwXyNG9azche4tmBc0ZjUwRWxdoaNbrzXjpKRWztJb42XBXPYThOfRSRj163GqSEGARz14HMUCePaDJekC8OwLzyP2DV3oSxeMcXf+qi+ZZOr+uzPwpbryJTHe9jfeHpl/UbcufYB91oXHUfvIHSucgvyx78cECRTjjCkrYubz4UYL9NOnDJ60yub5NFv3ejI+L1+NM1E0PIqVMhQAfj2G0dSlxI13LeTCPy7ZX7+l+NFRDNf7INvNk5y5I2YaRtvJGbl6ZrFaQQalOSAevNrJ1BHlbNIjLCfKSLzlfkrdWBkOshO9rTI26B7yOB+zPR+hIxNYso8n7GuKUKzZLVk+lCRVKNdQVuF1q5dMi3VR0alo3eA7QHZVj6IDdoXNii59k3T8EgTC8+gkjPr1OFVY6l8PFjnsAngCzxx6BBr16RFsuz5MjtgJ4SmTFz3tU5DCWyHzM7zW7IiuoO75to/x9nyZl9Rz4Ak8S+oXaB/Tr5yxwil5EkvMTMGvKRHAq1Smh7Efw5wY2YiP6ckZXgkz+zoilqjyM7+CS4aLTbNzUub1TOOF6qj0gz4c6W9AKnp4BMOUPriGcyVn7oeZhlFCcoZEL1/xNQerH8FKCINQQrlocFwJpDvUp72kuiEPD38lj8pnUGYrocDJmYVcAjrUFtF6iAA/JSN4VU/Yv5OONUUo2jStOuFVMJxIIf15WUH6zctVNWqSI8SY5ZuQnAkxIzyIP+JLJl2+Lcf9U/n2u5nriPCEE3LMCalJfrhh6QdL0ivgCTxrGl/ASz59hG3nk2UNekl49pSQkX3hb8yQv8h/z58N3faX+g777M8+axgnwEMevYJ95pFjLfoIPPvCM1+scF6pInwP9kGGQSRjTFze+SdUxq12WY+YRZMzgqaadPF48nlxLTL/seuu5LTH5f2+TH32afDKFJZHan/DFmPHRPe7X1ofOIHD/LuteDVchAFgNglGw8hDTSsQkSlONywB4NwweArrhGctzhn4OO6cEcSQ43E51iJD4NkPlqRTwLMvPI+ME9CFvnTBGPeNXmsmkzdd7sOX6sqXxHjb33h7ZP5F3br0AfZZFx5H7QOxQuMRNv0PGNYPn4YRkjP145adQ00RsjcCgqdJgPA8Ogmjfj1OFSkO8KgHj6NYAM9+sCRdAJ594XnEvqELfemCMW4kZ/pZTQNfqitfEuNtf+PtkfkXdevSB9hnXXgctQ/ECo1H2PQ/YFg/fBpGSM7Uj1t2DjVFyN4ICJ4mAcLz6CSM+vU4VVgaXg8WOewCeALPHHoEGvXpEWy7PkyO2Anh2eUKkpsmnGCf/dnnEftG3br0AfZZFx5H7QN49oUnYoWnhfGKNQQMi4k2G2ENIyRnsom3HUKaIrTDPTgNJUB4HnWqUL8epwoObj1Y5LAL4Ak8c+gRaNSnR7Dt+jA5YieEJ5Iz/XyHBvbZn30esW/UrUsfYJ914XHUPoBnX3giVhhG29o7Bob1Y6ZhhORM/bhl51BThOyNgOBpEiA8jzpVqF+PU0WKAzzqweMoFsCzHyxJF4BnX3gesW/oQl+6YIz7pqtMukxKwZfqypfEeNvfeHtk/kXduvQB9lkXHkftA7FC4xE2/Q8Y1g+fhtEiOUOF8AcZQAfa0gF6YoX++IdjyAP6AHvAeDBJAOMhxkOMhxgPMR5iPCQJYD7AfID5APMB5gPMB5gP4vMh4oBtxQGBV7t48VzE20Vyhi9g268EyIDx60cChOfRJyRQv54nXuimEXjUg8dRLEwQAE9jd/O6oL/6q7/qpi9dPi1/oq1hrO5nnKZxHnj2hyfGOLym7qgPh/plxgWMt2XkepW+4l6nn7GW5k3ECtuPEwLD+jHUMPKi9FqB+rsFDvdKADjvlVjd5QnPq5wxtJvfucYNS36ZXqmnuGHp64YFyZm+8DwSvMVY3d9YfeVcgbbz6hPm3r7Gaoy3ee3j6vEGePaH5xF/CnXrGq8RK6w79pfCHTBMkdK1ZTSMkJy5FpNLWtcU4RJG0GgWCRCeVzvZaD+fk01KAXnmk+fVsjRGfuLT/LjBKXyDQ4ACT8iAdABjdVdzFfDsZ96led/8MFb3M1ZjvMV4+/O+xqir709yto/xtvC9x8lzGWKFkwvR8n9gWD96GkZIztSPW3YONUXI3ggIniYBwjOngwVa1zr/pDjA4FoMcsrfDAQnO9VIHhS8SSJAgSdkQDqAsbqruQp49jPv0hxufhir+xmrMd5ivEVyplodwHhb8L7jgnkMscLJhWj5PzCsHz0NIyRn6sctO4eaImRvBARPkwDhmTOYDFrXBiiw1P9a+efWf7xapa8bFrzWrC88jyTaMFb3N1bnHv9B7zodwdzb11iN8fY6WyoxjgHP/vA84k+hbl3jNWKFp4XxijUEDIuJNhthDSMkZ7KJtx1CmiK0wz04DSVAeJZwnEHzGscZNyzXyL2UviNAVNcNx9EbQCRn+sLziD5grO5vrC41D4Du+bqCubevsRrj7fk2VHLcAp794XnEn0LdusZrxArDaFt7x8Cwfsw0jJCcqR+37BxqipC9kZYIvp/jOAzj+Hi1xLXllfAs6UCD9rkONAELmZ8r85LyNoZ6wZJ03OgUutEhQIEnZEA6gLG6q7kKePYz79Kcbn4Yq/sZqzHeYrzFa82q1QGMt4XuOS6awxArnFyIlv8Dw/rR0zBKTM58xpEC2I9hCmKbQPZjHN+foNc7yj0fM61nQGPr8DOOm3UzlPm8RTvU78c4Pt8KcwltvebgP8mN/p7XJgE0RVA6lvHUZxxJBlJ/jDxf4xiqUMZWk0khOVOts1cyaF4rbdLbWnkDX/uDV2Ycusi5PiOJ8ByGkeYU/nv+rK8blIUMCdCO8dzq2+3wXsMaY3VXcxXm3v3zW80+Qe9zL4/Vn5/M8+8Ph/GzNl61fg3jLcZbJGeq1YGex9v3j9w9Dt/r0Lbn+x3qX77fe1zcOygh1c/rYe8ljZzVuKvC1fs513uOS7JT24/XmQHHwv1VRKCdOoZhSh9SymicjSavYDAe7o2ZhpFneVoBEz33guoiQUMBdqvrnyD4HinHgXBOVAw7kjMpdbOUebsklOWTEyvC7FPaeko5iP0LV2noOEeM5/Dp94pekDykDh1u7DsCjOOFmHzH+FSL8Kz5Bhm87Qt4YKn/PnnVrl89v1rl9UP/5oRvYHq+Ybnza80IX4kt4/36RecJuUhQE2N1f2N17fMJ+EvXuZ7nXk7MjL8YxgcFCSl42HlyBuNtuu63ME4Az/7wtONSxGdq9brxdTsfX0Ns8sUKP+PrMXjPt7+fU7JL5l6mxMxjdDmUOfAvC0WCZV5SZ1F+onNecqZ8fyNiWJz+HsO0PhCOUtwTrhLDBUv2BDCbRKFhtJ2cefEKl2EcXyIxQStLHiKwnlqOkhW0csSuJtmRnEmpm6UM9e3pVgZ9XiJZI/jdakvW41VGnAi4MCmhKYK1ltw7JCOT4ApWWr2FTK9OijAmV/PxpewJzxYccfCY5ojjhiVNTq3o0y0CRHwjNgeKHj/pN1h/5+RMePPGgcGe8V70mXX9l8OIsbq/sbqVeQV8buveHeZeekCCxl+zeqbz4CHG222db2lcAJ794bnmL7V8DcmZLwNUsWqfl3mowCVM9ATKFMDXVlb4hLncy6y8CZMDOm2fQuGjzP1N5TZrvHfRB4WLlDJzNWA2CULDaCM5I1aQyNTYAo/UcqIiB8T3rJzh6il1c5UxbcpVQSI5s8WPyoOQlch1MakztpoilGlX9NWlwl1TNqE3J/k4kRPqGpeT521yb07+yGu0qJESQpRsWWAgX0NHZZ4uUWiTMwJviRHTsuXmrqzy4rpbag/Jmb4cXNKTlm6wwOu6/hm7FwHdlm9QNnm/QXLmVnhu6S0/td37q+xicsBY3dVchbl3fS5rba7vfazm15m9f3mP5Azssz/7bG1MAb9xHex5vEVyxqCb718YxJ+PvVAetTa/rmxxPuCEA/3vcVrxMTxe7sVOYyQ5M7dJMTT+k+1Mq0CWiSFz3qMfMKMdZu6v1oR2Lmu8N+yD1mAMR6UsMJuEomG0npzxVn4okuVTqeW4PG050N1EckYkGaTlcn9ifeGkghfMF4F/LWHBNAtuNUUo0pyVi1hhJRsK9caWlwkwIS9OlHASJ3zlnJWzwMuWmWnG6nIyx/CntEnnmT/bzjiOMXqyjOxzgX3CEw5j3GFsTTakIq3xDH7j+mdMPhbc7e38z+al6j0H6wnQ3nD7sj/01Hbvr9JZxRpjdVdzFebe+DzW4hzf9dwbJMbvsHIG9tmffbY4roBnXQ97Hm/5Fb4Ub+G/3leMF40VhkkXcxyueBnHMTHY7wL9WkJHSc6E7ZPyzufsah6tTCzRY5R/5V9Iyxx/39+VlrxLWTEM++C1RAdaYmxRyJ4AZpMoNIwSkzOR4DqL2AbZN8pxedpyoDtMznBCIwyqp9QtUYZo2gC8TBqIxrb64gXqReAfyRn3ujiTeBFJFU7EhLLVdI1esWf0hfWPj+kVekyI8BLnWfbm9Xzz6huLk8DIq/50K3KIXBIvQk8K7ZJhw1nUncUW5YKl/v1gSfp3h1ercADbfPCx81er3P21ZiYhI25Q6altxv9uW4zV/Y3VLfoM4FnXw57nXhMs/JEbe++QnMF4q+t5q/YPPPvD8y4+IK9a7DlBowWN84SxpmSJt7rlYLLCC/SbEDMl0XjVS5icmZMIXnxw6pm/WmYqZ5M1VMTwyXRTpZG/v6kt58NQ6YNhYpalvSdMlw0wm1DUMEpMzgwmrh1VBhuk3ignCYRBd75WW3LG8sOBf2ZUbLf6YoP+VEcE/jlBIEidsaspQpF2rVwisrN6I65zIowHzfDY0uRv2QRbL8kj6BrR83dugiQb07Q4CYzWkjNczyYSNV6KSNYjSni26pyD76VzjhuWpUxa1pOeA0TyRoyfLOv94/B3T85IzO9wgyr7G+5jrO5vrG55rgHvvj52O/fOK1RlYhzJGR972EL98sD8WT9Ge+yo2/E28gBS7686KxUrVD8an5KcmVduEF/Tn0sEhIF+XnEzJVbC5Mx0zGFGL6AW8GHoileYGd654go/kubX/ZVEvtzPhaHaB4WnCYdhtAmtFRkBs0mAGkbryRm50oCVUQHDW5GwWk5UtoHtIFAuikR3U+oeLiO/TRIE+UPGYm2p58XqDRn4D2kWPNYUoUhzNvkSSdrZxJfQAZYZJUpsfSF/vr6aEGEZi3rUQUtPtEfnmSaSM0jy/Px6Z5lUco9DjLLXY7aGgRlbI859GOxt9fguiRmDDwHaOZ57+scraWSgcE/9pstirO5qrsLcW/dcujbPatd6nXt5vp0CVByocttun+bGeIvxtoJ7NG2swbl/Z4bbpv25nX49j8O9+r4lYoXRIH/s9WVBsmRSsuX/RaDfhPwe4zDQq8OC5EysLSJr2nNJnynJw68fW0nqLFkyZ0r1N9Lc4nQODKN9WLRGJ3gljZChWo5CsoSPX246dy/MNIw2kjPylV7DOMqVHuZ1UCL4zSscKGi+Vo5B4oB4+Fozvr62Tal7tIztz9Msdlljxwb3w77YZAAlJz4TCcuXkN0q8fwXNUXI3wpRFCtQhoeTAV2ycoi9euwxjs+H/xoxQ5JXv6zJbys5I3R067VmnGzUyll813gpI1lJlfCEY9hPUIGwBZ594dnzDQvfoDx7/s6MvGkjA5XHN9+/9XdnMFZ3NVdh7u1n3iUfyvxuMj7fYeUM7LM/+8S9Tj+Y3mm8pXuA3n3f3LHCKcg/+F8bmGZpCgqO9Fpsu+JiPq8F8G0VsaOXm2gOz2dAm88vn5A3PIqVMpxsMHxR4sa7JhhQdkv2V2lOPXUUw/U+aE3OyZkEOQGzSX4aRtvJGbl6ZrFaQQalOSAevNrJ1BHlbNIjLCfKaHjTuZS6OcrYoHvI43zM9nykLQ76x/pa8LymCMWa25LlI1jFouEsk33adauXTIt1UdGpKGbDONqVM+M42lU9ig7IclF6zEsxyVrChCcc3H4cXCz17wdLssuel/rza61uk5j55TDe+bVmdPPkPSU4v16n2ye1NwK7GKv7G6vhS/WDac9zb/iAwB2SMxhv+7FN9o0x3vaDabfj7S+G8RF8S/MO9z45Y4VTID6WmJnCWVMigFepTG+7eSgJGxv8Ejt6oJ9XwkyrSmXiR+VnfgXXIjw7J2Vez2XySLDg7ar0vRL0jDrx9V1/A1LRwyMYbveBklz+ypdp5VGanIDZBJuGUUJyhirLV3zNwepHsBLCtJFQLhrMVgLpobql1M1RZiuhsCc5s5Ddw19ZFPbxhGNNEYo2S6tOeBUMJ1JIf14syKB1uaomXI1kiip6ZuhyQmQlORPiQckh4o/qy6TLt+W4fyrfQT8zHRKecHD7cnCBZ194hoGUXo4pWE/jj/bX67dn7pyc4RtSifedEnOh3SJY2M84jWBhX1gynqHN9nqM5Ex/+tv7fQDmz750ttvkDK+SCe51vAeVNh7kaXHeIT8/z29eqRLIb7qPEMkJk0vx7ydlQmWNl2igX9BUky4eTz4vrj3mP3bdlZz2uLzfl5z9DVuMHX+PYVofOIEz9W3q70LOEeaA2SQYDSPP8rQCEZnidMMSAM4Ng6ewTnj27sTfqX8E8Z3623tfjcl26Li3eLORhWcCFHhCBqQDGKu7mquAZ1/BQmOgGKv7Gasx3mK8xTdnqtUBjLdDP2PtL6dAu8EU/5qVAOK99UOnYYTkTP24ZedQU4TsjYDgaRJAcqa/gELvCYs79c8MBAgQ9XPTQoACT8gAyZlqg0Tfzi9k2t/WRb36/DDMvX0FC2Gf9dnYkXEPePaHJ3zjfsZcxAqNB9H0P2BYP3waRkjO1I9bdg41RcjeCAieJgHC84iDjLp1OchY6l8XHkfto+el/ne8Ebvza83uiPdanzFW9zdWHx3vUb8encDc20+gkMZhjLf12FaOcQ549ofnmr+Ea22Nx4gVnhbGK9YQMCwm2myENYyQnMkm3nYIaYrQDvfgNJQA4ZnDUQaNOhxl3LDUgUMue0CAqK0bkq0bSCRn+sJzC++16xir+xurc437oHO9bmDu7Wusxnh7vU3lHNeAZ394rvlLuNbWeIxYYRhta+8YGNaPmYYRkjP145adQ00RsjcCgqdJgPDM6TCD1rUOMykOMLgWg5zyNwMBXoPVz2uwCFDgCRngtWbdzVOYe/uZd2kOx9zbVjBwc16Fb9zVmIvxFuPtps3D177M10ascHIhWv4PDOtHT8NokZyhQviDDKADbekAPYFknhKcxyEcQx7Qh7+0s/LV9kCrLcyKi5kjHEMe0Ie/svbZuj1cPb6gfcz3mO/j833r4wv49/0FjHcY7zDexce7q+0D45U/XrUqD8QB24oDAq928bI3w/POIjkTFsBxfxIgA8avHwkQnjmf9Aeta59mIscaGFyLQU75m5tIPP112dNfuZ/Moxut3DRBr80nvKELbeIWszfMvf3MuzSHY+6Ffeb05UAr7/iA8TavPK/WT4y3fY23iBW2HycEhvVjqGHkRem1AvV3CxzulQBw3iuxussTnlc7ZWg/n5ONG5Z8sqxBL3HD0tcNCwLyfeEZC9SnnIcu9KULmHsx96bYPcpcY/ewz/7sswYfHTzk0Svc61wzLpaajxArrDv2l8IdMEyR0rVlNIyQnLkWk0ta1xThEkbQaBYJEJ5wLvM4lzXIkZSiBj7AQx6dMkaOlTP9rDYhQIEnZEA6AF3oSw8w93ble8A++woWEp7wS/P4pTXIEXj2gyXpE8bbvsZbxAonlW75PzCsHz0NIyRn6sctO4eaImRvBARPkwDhWYOjDR7yONqkOJBlHlnWIEczECCY308QlwAFnpABkjP96QDm3q58D8y9fQUL4Rv34xeTbw48+8MTvnE/Yy5ihWaIavofMKwfPg0jJGfqxy07h5oiZG8EBE+TAOFZQxAaPORxtPHqhjxyrEUfsdS/n5sVuvHEq6z6wvNIMAG60JcuYO7F3HtkPEDdsuMB7LM/+6zFTwcfx3UL9zplx7+z5xfECk8L4xVrCBgWE202whpGSM5kE287hDRFaId7cBpKgPCEY3ncsaxFhrgB7QdL0incsPR1w4KAfF94HrnhhS70pQuYezH3HhkPULfseAD77M8+a7nvAh/HdQv3OmXHv7PnF8QKw2hbe8fAsH7MNIyQnKkft+wcaoqQvZGWCL6f4zgM4/h4tcS15ZXwhGN53LGsRYYEbC28gI/jemUMFa/B6ucVSAQo8IQM8Fqz/nQAc29Xvgfm3r6ChfCNj/ujNfn0wLM/POEb9zPmIlZoPIim/wHD+uHTMEpMznzGkQLYj2EKYptA9mMc35+g1zvKPR8zrWdAY+vwM46rdeV14vcxjs+3T/Qp+kF94b+X0p/VtsZxfM2BfabxVAL8KWV8DoseaYpQtMHxM8lJ6o/B5TXSpct/SM50dUNe083HN7yQPXxTD3XqvNEx41vHwfznMIw0p/Df82f93JyoN5oEaMd4pvbt85MZ8x8O4+eu8uhcF+5o25hH65xHv8EFc29nczF8467uDcg+v7Fr1KlzjO59vGXf+C6+b95Y4Xtc+JNBaJb05/N62HtJc08Zxm+Nkin/3s+53nNckp3afixivAqdbKcK9zeRz2MYpvQhpUyEWWBmBKNhlJCc+fhJGU5CmO1DBNcTy3Eg3NLZkZzZrLvCgzTwlOTMZlvjOMboyBUYKWUielvqtKYIpdoaaZj0kjIiGbbQoXJcrFJmrCVuqxXqukh4wlmt01n9Bhe8uqEfLAn/npf6v380jDIZQ8c0Hr1+0VlQSCQf8CqrYRx/MYyPYRifhPeNkzM968Lrh7ptS3vnYEUvW8y9mHtb0eU7zr2wz/7s85t7JNSpUw96vtex88KNfN98scLP+HoM3nPy7+d0ryhDs1Ni5jG6HMoc+JeFIuE3L6mzKD/ROS85U76/ETEsTn+PYUofUsosWLIngNkkCg2j7eTMi1e4DOP4EvnIDwXdRXImtRwlK2h1iV1NsiM5s1WXg+y0KoNXZFi+RDucMBHdsdrCO1ttfV5uxQ2vIArbTynD7Z241RShWPMsa8KE5USNvYX8rk6KMG5X8/ElCIQnnNU6ndVvcMENaD9YEv63uGHh5MV84/L4CZIz9maOZdPRlgL3hLF5ghDJmXuspLqBbWPuxdzb7LgN+8R90M/bsl+Mt23htXU/e4d7nTv5vkVjhZ+XecDLJUz0BMoUwNdWw/gBMy73MitvZILHBBzNqh3Xll/3lKPM/U3lOSuGiz4oXKSUmasBs0kQGkYbyaVibGMAACAASURBVJm3S0AsMpESlNRyog4HxAeRNBGXV3djdTkR4wXZBW+cjOGEAR+vNRZrSz0ftJVSZq3tQtc0RSjTlJCHS4W7phgvTqYxLqGucTl53ib35pU48hqt1qFVOaQHCwyC1949ni5RaPVGrMCSOsK0bLm5K6u8uO6W2iM8t5wmXG/HCSY9AV7t4LWFlbH7jgLzq8Erfqqs51ebEaB3wVPpJ7/S4f1LJGfuaNs9J14x9/Yz79K8fEf77HllG+yzP/vc8p9xvR3Mex9v7+b7Fo0VhkH8+dgL5ZFCza++Wpw3yub+caD/PU6rOYbHyz6jT2/woVeqLZIzc5vUT/6T7Uyre5aJIXPeo+/4iO5l7m+0neBCVgzDPgRtmcOUMnM9YDYJQsNoPTnjrfzQULASdkkcGcxeqbIMmq8VDq5xkDxM7MjzvHJG6wMnAeyr1ebVPEEz5lDSlNc5YeAF6kVQn5IRKWUkzZP2NUUo0rSVnVjJJBsKsbHlZcJOyJR1S8OPkzGGvkgKWYxnmrG6Xn2lTaLL/EnMY/RkGdnnAvuEJxzYdhzYLaxIRbbK4Ho7eBuTV4LcPQb46amy7l9zRYDeBM9FP4Pk291XztzJtsefza+h6Dzxirm1nbl1C6s72edd5t4tzHG9Hfsl+wRe7eC1hVXX4+0Nfd+iscIw6WKOwxUv5iM00yuUOf5nlGz5zwX6tYSOkpwJ2yeS8zmbxNHKxBI9S5b8MyEtc/x9f33i8aOsGIZ90JpNKTPXA2aTIDSMEpMzkeA6A2OD7BvluDxtOdAdJlg4oREG1VPqWj7C75rMx2zcewLqW3x6QXgR1EdyRmAc0QuJl8FGJFUYq1D+to6gSa/YM/rC5/iYkm5MyCidSyLySh7zer5ZPyyWAkev+tOtyCFySbxIxS2zj+RMP84tOb9Y6t8fnosgd0fBfRMUEk8e0YqKnvvb83dGtnAz3xT6kcP37smZO+mC+Zhr56+ww9yLuXdrDKzp+t3mXthnf/a5FfDH9XYw7/m1Znf0fbWgcZ4o1pQs8Va3HExWeIF+E2Kmh4l41UuYnJlX13jxwaln/mqZqZxN1lARwyfTTZVG/v6mtpwPQ6UPCyZSyrhKwGyShYZRYnJmMN91dyIN9myQeqOcrBYG3fnakeQM0aBvmcgP0D/FN3NkoJ3bo4VvNlnDwX17USQY5GqOMW1VDPfFBv2Jrgj8c4JANHfGrqYIRdq1GCtyNaLg786I64wFD5rhsaW5loDj5Iyg67UXYMk0LU4CI6kzYTk+tonEgCdZt4iAJ6KEJxzYdhzYLaxwA9oPloR1zzcsYaCKl/33/OqjOwXkPXznlRMy+YbkzF91nYhk/E1gYhjG1y9cYo6v9bTF3Iu5t1V9vsPcC/vszz637odwvR3Mu73XuanvWypWOCVAglUjKcmZeVUG8TX9uSRJGOinh6cf9lVmYXJmOuYwoxeeC/gwdMUrzAzvXHGFH0nz6/5KIl/u58JQ7UPAk1pmRUbAbBKghtF6coa/3UHBZ1bGAIzpkIPhW+VEZRvYDgLlokh0d09dmzhaaceWCYL5xECsLfW8kAMF5lPKRDtZ7oKmCEVas3KNJO04eSVXT7HMKFFi6wtc+PpqQoRxEPWog5ZeoAtME8kZJHkq+KAmqSpuSNq5IdnCyoytna8mkQEtfppXBvHl9eb3CdAb4cl95QD9dFPEN0du23NCjmWw2N5AFxj33hMzBlvMvV35Hph7O0umwj67s88t/xnX27kX6nW8ZR/obr5viVihGsAnxZmTKYtQc5AsMTqm/FsE+g3JxzgMlAQKkjOxtoiuac8lfSa+OJG0ktRReJrI0T0S1xeFYjwk9ldQWt3NgWEUM9FyShlR3OwCs0kiGkYbyZlRrCoZxlGu9DCvgxLBb17hQEHztXKMDgfEZWCer21to3U/4/jmj82QZb7dKhq2eArQm8A/NyJXzgRBeyoSa8sG+inxMLdpy85ySSnDbJy41RShTPNiBcrwcHLy5Bom9ERihVc92aSJTLAI3VswL2gIdXDJGaGjUkdsO4JvqzdCl7icxXeNlwVz2U8QnnBg23Fgt7AiBdkqg+vt4G0M/kbB/O7ffU+A3gjPtb7efeVM77bNQYmuPzIubRlzb1e+R+/2GY7Nd5h74fu24/tuYUX2uVUG19vB+07j7R1839yxwimAP0Se9Q8SKEaZKGdDCRaRLJnPhxu93ERzeD5Hei2vez0Zn1++3sbwKFbK0NuOXo+5LiVOvGshF/5xyf76LcWPjmK43oep3ZQyGofAbJKKhtF2ckaunlmsVpBBaQ6IB692MnVEOZnE8eiJMhqKdG6zbowHQdsG1BU+ZVJps60Vfjigv8azLBPrb6HzmiIUakqsVlHkTfg/lIRYKHuJy5pMbaKP9UDgzh0MaUsd5KQLlbWrehS+ZbkoPaVfzEPmLeEJB7YdB3YLK7y6oR8sCetul/r/cjAOr7dCZl7+3/Mqitu+1kwGsef9O9yghgFQedyzLvBrkm6TmPnlgO+9VbByeMs/2nMdc29fK2fgG/fnG++xZ5StG/+ex1vp99H+HXzfnLHCKRAfS8xMQbEpyC9WmXivJlsPnOmBfl4JM63wd8kZTvoE/JhVK8E5anZOyryeMsGTwo9CS1Q70l9BZnX3CIYpmKWUiTEIzCbJaBglJGeoMq0uEd9uMUH1YCWEaSOhXDSYrQTSQ0RT6oZ8Pun1WAEhStDI79JQgoBXv3DRlLYWcnn4q4ZUmWhluNFztpoiFG2ZVqeEuDxIDsusteHDrkCixIiW5FD0zCRZuOxKcibEjLAn/oxOv4QYgjZSy9lkD/MiSBbaJTzhtNbttO7BBzeg/WBJuPd8w8IBXBqD+K/3YG7PAfnwBnTr+A43qGsy6FkX6ElDtulw2+srzjD3Yu5ds/eart1x7oV99mefe+6NULZu/Hu+1wnH/jv4vuT35fnNK1VUn1IkY0wexPc7ZUJljZdooF/QXDwTPydjnH/r8+LaY/5j113JaY/L+32Z2vFp8KoT5iG1v2GLsePvMUzpQ0qZGGecINNXRbFc7oCZhpFneVqBuFhxpVUJAOdWkdP5JjzhtNbttO7Bh1DeUx5l68beWK2y6iB09nHcyFO+BCjwhAxIB6ALfekB5t6ufA/YZyNzaup8Cvvszj5x/1L3/csefDDe9jXeIlZoNLrpf8Cwfvg0jJCcqR+37BxqipC9ERA8TQKE5x4HCmXrdoZJcYBR3RjtwccMBKnBB5SrP9hLgAInyIB0ALrQlx5g7u3K94B99hUsJDz3+F4oW7cfDTzrxmev/WC87Wu8RazQaHTT/4Bh/fBpGCE5Uz9u2TnUFCF7IyB4mgQIz71OFMrX6xTj1Q31YvON3dxpqf8dkhY9v8rqDvjl7CN0oa9gBOZezL05xwfQyjs+wD77s89vfGrUqVMPcK+Td7y7ev5ArPC0MF6xhoBhMdFmI6xh9P+39+26EuRGlvUJ6y6wRkNGzzjTfhfQnhZy22jI1azR5QlYDCCjhfHkC1eAnP2BAWSMJeC648wHyL8fk4sgGcxIZjCTWUlmkVGngHsrH3wE4wSD5IlkFoIz1dQ7TkGaIYwjPSRNNUB4YrLa52T1GVywALWDJeGPBYutBQsIeVt4nlkAwxZs2QLGXoy9Z/wB8rb1B+if9vrnM2sk5OnTDrDWaev/rh5fwBWmbNt458Cwf8w0jBCc6R+36hJqhlC9EhR4mQYIT0xW+5ysPoMLGc4z+ZCnTxtwjgCvwbLz+iMCFHhCB3itmT0bwNhrau6BsdcWWYi5cZ9z3GfXHsDTHp6YG9vxueAK3Qxi6H/AsH/4NIxWwRlKhD/oADYwlg3QEyvuqZXgh3AOfcAe/iOOyq/uD/SEvXvKPkiEc+gD9vBfsX+O3h9e7V9QP8Z7jPf58X50/wL5l/MF+Dv4O/i7vL97df+Av1r6q1H1AR5wLB4QeI2LV1wMh4NVcCZNgHN7GqAOjI8dDRCezz65hHz9PblEE2vg0h8uz2LiFpHYaWHmKXtaaOHpQDtPB57BEr7ajp8m/w487eF5pn8jb19+Hv3TXv98dl6NfP3ZAtY6ffnLs+MXuMLxeUJg2D+GGkYLll5L0H+zIOFRDQDnoxrrOz3hiYlqfxPVZzHBAtQOlmQDWLDYWrAgOGMLzzMLWPhqe7762XEb+fqzBYy9tnw1/G1/feyM3wOe9vA8M59C3r78NbjCvrm/EumAYYmWXptGwwjBmddi8pLaNUN4iSCotIoGCM8zE2Tk7WuCTEYBTPrC5AwerpNj54yd3SYEKPCEDsJvzpzxDcjbl5/H2NsXHmf7B8bevsi+0+Mm5sam1gbwt/C3p30C5uLN5uLgCt0MYuh/wLB/+DSMEJzpH7fqEmqGUL0SFHiZBgjPs4tY5O9nkkyGAzz6weMsFs4RYAHRbAFx+eKOAAWe0AGCM+bGKYy9dsZdGrcx9iI4c3b+hvztfAL8bTvdvsJu4W9t+VtwhX4KMfJ/YNg/ehpGCM70j1t1CTVDqF4JCrxMA4TnKyZiqLPNxBpb/dvo9VX2iler2Fqw4LVmtvA8E2iDr7bnq181TqDe+raEsdeWr4a/rd9HXul3gKc9PM/Mp5C3L38NrvAyGq9ZRcCwmWqrFaxhhOBMNfWOU5BmCONID0lTDRCer5xgo+66E2wsWOrq89X2CYKorwXH2QUggjO28DxjD/DV9nz1q8cL1F/PpjD22vLV8Lf1+kYPfgZ42sPzzHwKefvy1+AKU7ZtvHNg2D9mGkYIzvSPW3UJNUOoXslIBX4+pul2m6b7x0hSR1kJzx4m2pChzkSbgIUu6+iyBz26jorXYNl5DRYBCjyhA7zWzNw4hbHXzrhLYz/G3r7IvtPjJubGpnwu/C387WmfgLl4s7k4uEI/hRj5PzDsHz0No8LgzNc0EYF9v3kS2xHZ92n6/EpafSDd4x7KeiRlbJx+fU5TzEey3Kfp8Tln+PqY5SMZ0z+RdPoIhDyneSjE/F6aPXmcZF/bMs/SX3akGULbyr8mp29pPw67j2lKTaitIHrpCM6YmvD3QMifkYGM9Ex+5O1rweOcjvEFxOcPt4nGlfj3gzFSSOJHgMrzdzn+0226S4yT48fvDWOewxi+2tRYhbG3r7Hz7FzG+tibjrv33xr3wfC38Lf/ZstHnfVxPeU36W9/H9Y1mTXN12/FuofmxJl0I64Z6nKFn9MjXTNITvbrY3t9IdM6Q0v+fT7C+vMxrZP6uu8fVxKOO+0N4n993Od1M+lHctpJE585PYdhWRs+H0kfuH+UUbvAzEGqYVQQnPlaBmU4mOG+74JcL0zHRHgspzQ487kOtnAZbMylwZmHErihsuTOid00BfKQeS4CEqJelvmZ3nYyj2YIJ4vcyP6Z18HKhjaKaXmLbVLi37K+ymUTnj1N0CDLucUDtvqf019v9mf91Sofv7pNt1/dpq8cgW3sOl5rtiQAeXH6aQznksU0fLU9X93b+AF5nrcxy2MvB2ai3w0kouUADfzt832hRz8CPO3hWTJvGiWNW9twQEEJuvDc9+NP85zYBSCUtKO0WcpZjyv8mj7ut8Wz9Ezo71GhPnihBVyWRNoiyLEq9OrgTFl7vcz3aY4ZhWDISv5lW4+cPY9hWRs8jhKf0IaCAA0w80hqGO0HZz54h8ttmj5EPJJ2jdxFcKY0HQU9aJdK3JVyIDhzf4jdOiLwsUWqM/F+C/XIAA7v/IlpQntK0lBsVsoj83BdabmEQ9RTabuPdMOytJohlOV8IlUMciU7rT7FLqct/J6o8nAWxunVchwW3GcgPHuceEOm5ybeWLA8p7de7c0yQcSLk0gQvQFBj+DMvBClhZylxahcmJYcw1fb89W9jiOQ67itmR17wy7GNBDjAjaGH5SAvz3eB3r2G8DTHp4l86YR0vDahgIvLkijBFxo7pv6YM5nYU3UlCsMO2W2d7OUBys4iPPhdqLIgAfxZFcHZxQyb9VeXSZuh2DblcLKL1XFcNUGH8BJd/uUtoHTvTtmGkY7wRmxO2QzkleaThgUE+IcyBC3ig5dcCjsRJnDjklWEcBh+dV6hfzUI0rSJDW5LURxl0wIvHAgZkH6J3Wtyml/QTOENrWKtmoYsX7oFWe025ADOYwVC8Xp5PUY3As2IO9R4Ix3Qq2wTF4zRwE2LiviJOxGekguK6YLAnL+dCcXy9/4m/DseQIO2Y5NwMlcoLNjOutZX677Gw1a0KIlXZyMsPA6JSMBahTPo+3ihah8cvBoGUOnh682NVZh7LUz7tKcwOzYG3bJpK+SZH9sgRhUxwX4W/hbvNasWxuw6m/V4EwIkKc+eMr4ZtWfdb6OaMoVroh+P1zL/568TwMtMsV8zET/5xQCBoudG3ogZAoyUDv5T1KJ610hvj53fVH+LEf2KG1vOJf1ubzhVV+r69mCt29UxTBtg6PLb9NtoQs9YKNJCcy8VjSMtoMzcjeIJKlTLZemk/mY6D4SnJH1MBEud/PI8uk41qHs8FkQ7IKMpyACBwO20qR1cUCA5OJeFet/zK9/k23Y0umq/HoXNEOoV7ooKbZf6F/cJscYfxcoGxQT2LC+OIjDNsDfES8RFOJ7bGe5vJQu5lfqJLm5PTGdCCjFekKwSKaRbW5wTHj2TE5DtmOEB5kIdHZMZz3ry3X5zifhzy4c3JNjP6x/i8Q0WU+AGsXzaLvURes76Qa+2tRYhbHXzrhLcwKzY+8OMWh2/IW/hb9FcKZbG7Dqb9V5bgjCrHxtzjcPOC9uyhXuBiHKSX6yu5no91wdyc5UrLpzRqs/XIu7ebQ0z+7CScty50rgKRe08bOZw/+rYpi2wUkTdjfdqC18LF9zlhcZmHndaBgVBmcy5DrrPJLsO+k4PX0z0c2kOd/jwEgku8Xrv2I94rdbaNeFtitD/t7L3EPLAi8sw4JgF4S9Vl8k/ffkFbJzsIHbftG3ZghNqo4YZ+xC4ul0IYIqrJtYRtBrzCPKpF1Uzl74Gp+LQJlroLjOGModWBFvgTXLQflZFk5XJEsTzS4KJTx7Jqch2zHCA1v9j+mrd/sy+2oVfqVV8hoVt5C53SarT+/itWbhtWaGnhA8GpTi9PDV9nx17+MJ5Cu3OctjrxtnM2PvijAckBhkHyu/4W/LbX8EPwE87eEp+6uVYwRnFpRThZNA4i92XCTFqoGAJI04XRD9jq6j3TAcJEh3zuQDP8vdMj5dDNZQfU4uLlcIsHmotHe44IzShtjmcC/sQJKUe0yiHAAzrxSNky8Mztwo8Jj/RJJ6J50sgYnuI8EZmV+S6vxarMX9ZFcG3ysJvJSk4fLom9NrctBvq8TXnVGwQPyGz5ZOZfmVjzVDqFyFLy5izEGTpJZoN+I+B7m4d6fnsUwR5IqBPLY/DsKIcqnqWJ8IoNF1LpODLjKwJzFK0/G5rF8ey7xJ02ueIjhjb4I7wsIKMpbZnWWCSHvnsqVt/driEsEZH5zRyEFNX5avgVwq84GjjBXA0x6elv2P+70v+UqWH/zrWaw+GIH+aa9/jjI2QM5927O61kFwpiZjRZQbjVPKrpFYTQiepMGbELAhzsv/zUGSlOjnV5b5wEoanPHnTDPGaukgCZq4coUcTnbOuCGPLFNtb1JPTN/pzhm1DXHH0rxLyeNwm+Lv0GzoCJh51DVOfjs4o72qK1qQPGAyPN2pINMkx5HYTojyJNnmaSyDSXmRmkn9SLiHezGPrFfIT4R6SRpXnPz9kiQQIERZHOYCBItEbU80Q2hSY2yrgg9VGINaAgvWPeEW8wvd8n0ZBJHHLiDCeIp8VF8sT9RH17nMaCuFO2c4n6xfHiM4gx09T2zBJ5PEQmB/ITCKjghPqwSRGpwxtK1fxc0wnmp7taeusWvG92n4alNjFcZeO+MuzQ/cR/NfRq+535xJdtMU+/QRdAJ/C3/7xJpqlLXC6HJa9bdqcCa3zsm97mwE/5rI2IIrzJH8frAO/wOhzzGQxb3MyYroj4GD+XVbcQfMVgDE1T0HfXyQhwNJG0GdjFzZ9uZkyAVtMuXvXa6B4V4bol5ZmEL8gJlXmIbRTnAm+U0NfhUUled2rgjym4MhRE5vpRPg+VdRJUQ530+/iVh/EGHPNwSBnu5YiSS8EhRY3AuFRZI9tKckDYkR2yx+U4bFc99f0/QZBQ46Czs+jnidRZnnTzRDOF+qVkKCkdRF1Hka0BOBFd5lFIMmMsAibG9VtShDqH8OzggblTuwYj1CbsZJSxftZEuWlXDVLxCeo0/qIP9MipCBQB+zPkbXhevwyaTXCmGi7p4wtDhRcSJAjeJZ2q5P409ol+oBvtqOn6ZxBnjaw7O4Lxvw6TQe338bXjtpoD0r7DA3NrU2gL+Fv1318Q79lhqcCa91Tv2tC5Abea1zba7Qk/zzLgs34VL++XQiQKKkSS9pRD//1szt8Zjcg4SRmw6v4WJ+TxTm6hY7ZYh0/rjfJheAoKDD4p7IqBxutzfdzeML0NuhFF546SyGm23IBWFygadEZr2tjM37YKZhtB+ckbtn5K4AdyxJaSbEtddNiXQxoJGmE2kSAN1pJMLTfCm5nwRNtLJyMsiOupdmSx7SzWIHRyrzTls1mSte0wyhYvHLovb0dFeCc6nuo0MNRaf3o11yWWyLip6zeW/TFIMzcldPil2SLlsey7JUR4szwnN0Ahvyz5N0vLph1oUFu7C61d8tqpQdFO5VKz/YJYje/rVm4YnBdFE6wiK7tozw1fZ8tYUxB23wdml67E1ITPVBiSRNbf93dXnwt/C38G392oBVf5sLzvBDSvE3vozNjWtyhZ6I3w/M+J0qIRhygDDTiX5+TZl/DZrc4aHKkws2hKDMx6NcLrX8pD0+8MG7cvzD5/dbeR1JcerpGQz32xACKUnAyrdrP7gGzDxkGkYFwRnKLF/fFcjq+325K8TVUZAuS2YrRHpqaunvt2gyyGBASurH8lI578vdPmpbkjSynhgcEEQ+v9KKd39wmsXunyjQpQeaITQVgHadpHog7D5YSUntcldN+ptELmmKH+udAyIbwZnUlik4RPIRPjI482w6xlmVO2lnpVPCExPWfiesR7HBAtQOloS91QULEzP8pBj5IfdnODBDbX734AwvSK3+rgHbdck3fLU9X310vEb6fm3A8tjrCEMec+nb+LhL/hj+tt++9owfBJ728CyZN42QZrWuEb5Wzn15PszrH0sPLVGb6nwCiS90yPpKf3umlNhP5coS/S4+49em8vl7lz8EY3KyzHWw/CKQMt9Ujjg9/zaO/F6WwTtTWAYZQFIKPnzpeQxL26Cl2w/MUEOAmYdTw2jR87QEhy0BGbrXAHDuHqJDAhKez0yMkafPiTGBD2z6xOYZXFxnNvYE6wiLq2YyEqDAEzogG4CvNjVWAU874y6N1e4DX23HV8Pfwt/iN2e6tQH4W1tvDABX6KcQI/8Hhv2jp2GE4Ez/uFWXUDOE6pWgwMs0QHg+QxojT59EBBkOsOkTm2dwcY4ABJEpggjBGVuL0KfxhK82NVZh7LUz7tJYjbHXmJ+Gv4W/RXCmWxuAv7Xlb8EV+inEyP+BYf/oaRghONM/btUl1AyheiUo8DINEJ7PkMbI0ycRga3+feLybH+x/GqVp0ntgYNV7/5as3fEPNdm+Gp7vvpZP498/dkCxl5bZCH8bX997IzfA5728MzNlXB9PF8MrvAyGq9ZRcCwmWqrFaxhhOBMNfWOU5BmCONID0lTDRCeZybIyNvXBBkLlr7wONs/QBCNtyjZWkgiOGMLzy2s9+7BV9vz1Wf9PfL3YxMYe235avjbfvpWDT8HPO3huTdnwv1xfDK4wpRtG+8cGPaPmYYRgjP941ZdQs0QqleCAi/TAOFZY6KMMvqYKJPhAIs+sKiBg3MEA+8UwWIqWUwRoMATOiAbgK82NVYBTzvjLo3d7gNfbcdXw9/C3+K1Zt3aAPxtslYYfOwBV+inECP/B4b9o6dhtArOUCL8QQewgbFsgJ5Ack8JBj+Ec+gD9vAfcVR+dX+g3RZux0WQCOfQB+zhv2L/HL0/vNq/oH6M9xjv8+P96P4F8i/nC/B38Hfwd3l/9+r+AX+19Fej6gM84Fg8IPAaF6+4GA4Hq+BMmgDn9jRAHRgfOxogPGs84Y8y+nhqlCbWwKIPLGrg4BaRgz9BhZ0i8xNxtNCCPmZ9vLMu4Kvt+Gny9cDTHp7v7J+stR39017/rDHHRhl92AXWOrbmxeAKx+cJgWH/GGoYLVh6LUH/zYKERzUAnI9qrO/0hCcmp31MTmvggAWoHSzJHrBgsbVgQXDGFp5nCEz4anu+usYYjjL6sAuMvbZ8NfxtH/2qln8DnvbwPDOfQt6+/DW4wr65vxLpgGGJll6bRsMIwZnXYvKS2jVDeIkgqLSKBgjPWpNllPP6yTIZBXB4PQ61MHCdHDtn7Ow2IUCBJ3RANgBfbWqsAp52xl0av90HvtqOr4a/hb/Fb850awPwt30FV86uU8AV+inEyP+BYf/oaRghONM/btUl1AyheiUo8DINEJ61iGSU83pyggwHOLweh1oYOEcAgsgUQXR20YP8Rhax8NWmxiqMvXbGXRq/MfYa8bM8f4K/hb9FcKZbG4C/teVvwRX6KcTI/4Fh/+hpGCE40z9u1SXUDKF6JSjwMg0QnrWIZJTzenICW/1fj0HNfoBXq9hasOC1ZrbwPBMog6+256tr+n6U9Vr7wNhry1fD3762P9X2Z8DTHp5n5lPI25e/Bld4GY3XrCJg2Ey11QrWMEJwppp6xylIM4RxpIekqQYIz9qTZpT3ukkzFiyv030LuwdB1NeC4+wCEMEZW3iesQf4anu+usUYgDJfYycYe235avjb1/SjVv4LeNrD88x8Cnn78tfgClO2bbxzYNg/ZhpGCM70j1t1CTVDqF7JSAV+Pqbpdpum+8dIUkdZCc9Wk2eUcmDowQAAIABJREFUe/3kmYCF3q/Xeyudu47Kr+XA9/ivNyNAgSN0QDYAX21qrAKedsZdGs/dB77ajq+Gv4W/xWvNurUB+Nu+gitn1yngCv0UYuT/wLB/9DSMCoMzX9NEBPb95klsR2Tfp+nzK2n1gXSPeyjrkZSxcfr1OU0xH8lyn6bH55zh62OWj2RM/0TS6SMQ8pzmoRDze2n25ImSfQm5D7Q35q97oBlC3RrS0r4mp29pPw67j2lKTSjNesU5gjPdTvZaEeY9l0sm37N8kO0YgeVcmDWC6Pe3icaR2w8bi5GSNCPqhQAdUe5nZd7B8UF2IP4ev9+wiWdl6DUffLWpsQpj77Gxrfe5wNuOvf/vNn39NvjlX92mr17951G54G/hbxGc6dYGTPpb4aPeba5blyv8nFb6k5zs18d0F+sIuaagY0n1OjtL/30+wjrkMclifTJf9/3jSsJxp71B/q+P+2L9dNttaNrw7fO6GHJdZW3j1PJ71d6A+bXYkERlbVjJWxkfkkTDqCA487UMynAww33fBblemI6J8FhOabDicx1s4TJYWaXBmYcSuKGy5M6J3TQF8jj8kyDQrbS90pzrHmuGULcGWdrnhv2EANuV/lKKxsdskxJ/vjfAN+HZ+yIZ8pWTHtjqX66rEezK2qtVPn4lyPhMcKYkzagBjnd6rdkejnRfBmM+f/C2Ia+NinOJ3PDV9nz1CGMKZCyzu3cce53f+tPNEV0P8seGgjPwt2V2P4p/AJ728CyZN42Y5h3nuvW4wq/p474MsHw+wlphHUlZsG6eHNcCLotk04JEZ044Jrk6OFPWXi/zfZpjRiFgsJI/NuTwQT0MueqytnHq9FvFkwNz94+Lntcva8MV+JB+NIz2gzMfvMPlNk0fohfRrpG7CM6UpqOgB+1SibtSSoMVVN9D7NYRwaAtUp2Jdw6KyAAO7/yJaUJ7StJQbLZEnqfbm5p0vXPNEOqVnpQUg1zJTqtPsctpC7+kuCanjP+r5XiycYTnKJNxyLk/GceCZV9HI9mRJYKIn8b9+NNtcsS9EpwpSTPi4oxlfpfgzFM4BlLw/tv32D0DX23PV480tkDWbft7t7GXxygam8kHOx+O4AzWR53uNsH4ue2/RvPvlvwt+9Ls9xvMdZtyhYGQ394xUR6sYNL/w+1EkQEPItauDs4oZN6qvbpM3A7BtiuFlV9qiiGLsWob31h/Z9t3oIx1qRWurOq/Bh+SXMNoJzgjdodsRvJK0wkFMiHOQRNxq+jQBYfCDpg57JhkFQEcll+tV8hPPaIkTVLTtCePWmZayDXnmiG0qVnoVcMoBvRCUIwDOYwVC8Xp5PUY3As2IO9R4Ix3Qq30Ll8xR7ulHnOgMAZnhN1ID8llxXRBwE1ZuBHtvgnP0SZxkDc/KSdLgX7y+hlNN67ni63x2cn+YGlywRnZvpI0Mv0QxwToYFidlbcYxzdYsC50CV9taqzC2Gtn3KV5wjuOvRxU/+RXmxkKzqB/2uufo83nIW/eBq3628Wcj+f+bzDXbcoVrshwP1zL/+udC/Lu8ngm/f2uiNtiF4ZOtE9BBmon/0kq0e/uWe/acdcX5S9lUc/S9oZzWZ/LF17PtrquFrp/sSmGXH3aNr6ufM84rW+q+o6vqwsYKXr3Zc4Ybgf81vW6K2kbLsKH6tYw2g7OLHaQZBpEl0vTySKY6D4SnJH18CvN5G4eWT4dxzqUHT4Lgl2Q8RRE4GDAVpq03XvyRFlKdwqljal3rhlCvdJFSbHNQv/i9spuYnqpI4ENB0o4iMM65++IlwgK8T22s1xeShfzK3WS3CxfTDdNU648mUa2ucEx4YkJY37COJpuyERGkxny5u3PdXme0Bv6LiHsS9KoC5+e9USA9ixfA9mKcQy/T/MurzWDr877vRHHBOBpD0+LvjrrjwNhyP7X2s4Z9E97/XPEcQIy63ZI/dOiv1Xb9AZz3aZc4W4QIgRZCqMUC9J/VbYSnFml8RwftTmS+1qaZ3fhpGW583SHj+fT6bd3CpvtutzWv6YYcsVp2/i68r3AKbnv7806WaddB97SPPRbKx/3uYykivxp2oaL8CGBNIwKgzMZcp2bGYMmO+k4PX0z0c2kOd/jwEhKqtP9WI/8zZj7JF7Yx6VQ4vm3TqSVc/kL8lykPRucoR+613aJ5NorJL7qUDOEJnXHNmfsQuLpAi8iqMKBmFhGCNjEPKJM2rXk7IWv8Tm9Qo8LohaK64yR3PEUbULYwyJ7+P0gTlckSxPNLgolPDFZ1CeLI+oFW/3tYEn2Z3Wrf5YgEsGBkjTqwkeU0dv9d3mtmdR7KY7uBz8tPam9Y4fw1fZ89YhzBsis2+G7jb3uN7/Eq0atBWfgb3U7H7X/A097eMp5o+Xjd5jrtuMKfbBkubtlQWs5jpjqX1B4SRJ5mhL5y10YaXAmH/hZ5vPpYrCGKnSk/Xo3jZRlfay09yLyvx2G3EqlbXxL+U5xWiRZ6MSXu8J/kUbBZ1Fg6YnShkU9opzcjhqR5OihhlFhcObmeO1shZGk3kknC0hJd77HwRMtOMNp6FuS6hQQSX9UPicTl88EuytTkPFHgjNH5Mm1V5Zx0bFmCE2qjm1W8KEKI0biPu9E4R6ZnscyZYBOHC+CPKLcRX1yZ44IFEabEPawFZwpkqWJZheFEp6jTs4h93pyjgXLWicj28m7EURyQVZK6ss8vR8jOKP/nowjBm+3iX6PqHcMa8kHX23PV4881kD2pT2+1dgbnuSm15mxf0NwZmkP6B996QPjZ194nO0fVv0t+1P+fpe5biuu0AdAtnY3hOBJ+gorR5jPr6+63eYgyYr0X7ymypPvc5AlQ/wTs5aQ8q5cIYeTnfnJDXkkSae2N6knpq9M/rfCkOXNt60QJy7IUcL36XYLdhH0QPKv/5ZpGA5RlD8cAB8SVMNoOzgjdxpkW09Fix0Jm+mE6iKxnRDlIsnuYSxDCQoxqR8J91BazCPrFfITGV+SRhMu5lPkifdkvVoh7a9phtCk1hh8UfRBFXKgTO6eYj0RbjG/CLLw/Ri8E4EZuobgDAI1nf74ZenEl7pGaVqk639x43yrIEx4gj/6d0ngpSTNcHogQA3iudWmPRzfZbG60hF8tamxCmNv/+PpkTnPO4297IPXRIYnN+6/nYM2Kz82yngGfwt/O/j67oj/Gi2tVX8r/SX72Xd4CKkFV6iS+c5wxL9AqpfSyZRzFZyJ14jIT4IzWwEQV/cc9CEe8s4Bg/BKsyNyZdubkyEXtBHqOXLYAkOuP9s2TqB8azhxMl9e0H1OP5yYvkvSyPTKcbYNubIr40MiaRjtBGeS39TgV0E5pXxO012Q5hwMIYJ8Kx0rJ5LshcEKIuofRNhzAWJ3Q7pzJpL6TNZzHg+mfwUW3QuFRVlCexb5N9KUykPVxzoK2ytErn2oGULtOnx5CUasb7oZ9ZF79dh9mh53/7oyGWCL2AjbWwnPwbYkTcwrbFTuwIr1CLnZC2vpYnlJPSt52l4gPEebxEHePAlC1gL95PUzmm5c7x+F/Dgg5x5hTwuakjRy4TPEMQF6QE8W0m7hyItV/p0DC+0tbgN8tamxCmOvnXGX5gnvPPaSD7O2cwb9017/HG0+D3nzNmjV3/J88N3murW5Qk+E77+qbEHS+1F8979O+ofXVT0eE72GLt05c2N+T5Tu6hY7ZfxvmIS8RMwv7omMyuF2e5OAUcivt0MpvPBSbQy52u22car1d7Z9IRiSYjSfr8uip/GXuGpp8te226CXnZU/X83uHQ2j/eCM3BWz2q0gSWkmxJOdDC6PSCeDOIvyRBqtKZEIV8pPO1isIxMIifeTsmQ5e2lK5cmVkwaUtDY3uqYZQqOqxO6XRNeM/V3BKNWZDPaRoOl9LivuwGFbVGwqm/c2TTE4I3f1KHLLdNnylHY1UjLhiQljfsI4mm6w1d8OlmR7Vrf6bxH2vJgpScNpR/nGa83mJ7Ad+Ufvhf79fG0UHGvICV9tz1ePNl+AvHkbfOexl/ybteAM/G3e1kf0A8DTHp415lU9lvGOc92aXKEntfcDM7wbYpuUX5NpWdLc7XQIu0cFl6jKE9JKKtjVFIIyHw8Z4FnLIK+o5csE7hl1kku83m0VoEgyPHFaE0OuvqRtnDb9VnEK7U4DXz6t0A8VlgTI1mnolXhJnlSIuKtq2x598EaU1QAfEk3DqCA4Q1m/5l0MTITTrhm5E8I1viBdlsxWiPRUoZ8f03QXZLkmgwyaiI64LCqV877c7aO2RUlTIs+Z9i6FrnamGUK1wrWCaNcJ74KR9vMhf9BFZJS7amLARdzX7NGVywGRjeBMmpeCQyQf5ZdBl2fTcftUuWUb6h0TniNOzCGzPjHHgkXXy6j2Yokg4gUK+Zz0j991X5Kmx8VXqUzvEpwpwdH9KKpiC2Qb7/DaB/hqe7561HEGcq9t8d3G3nQMcz78V7fpy8hOT/jbtY2P3O+Bpz08Ux9k5fwd57o0j6/zCTtY1LWCIL9jwEK8VqxQAJX0D3mzOyRE4MavZ5eyzFWz/Ln7c0p/xOnX6+RFMCa2d053NCiV1pye18OQSy5vG+eQ3x6nub1e7/kgySq9snMpTbOvw/I2sO2wnPtly9aWHWsYLXqelqCsaKQaSQPAeSS09mUlPEeeoEP25QSdEIdOljoZWR+uBxshR6wstE61gwAFntAB2QB8tamxCnjaGXdpzuA+8NV2fDX8LfwtfnOmWxuAv7W1gxxcoZ9CjPwfGPaPnoYRgjP941ZdQs0QqleCAi/TAOE5MnkN2ZeECBkOdLLUycj6cI4ABJEpggjBGVuL0KfxhK82NVZh7LUz7tKcAWOvMT8Nfwt/i+BMtzYAf2vL34Ir9FOIkf8Dw/7R0zBCcKZ/3KpLqBlC9UpQ4GUaIDxHJq8h+5IQwVb/pT5Gtw9Lr1Z5msQ2FJx6l9eaAev9hTZ8tT1fPfp4A/lnm8TYu+/DRvLz8LezbVvo58DTHp4j+RPIuj0+gCu8jMZrVhEwbKbaagVrGCE4U0294xSkGcI40kPSVAOEp4WJOtrgJ+pYsGDBgkXD9qLhlfpBcKZfbK62C/hqe74a8xA7mFL/vNonoL524wP8rZ2+SX4WeNrDE/6vnf+7WrfgClO2bbxzYNg/ZhpGCM70j1t1CTVDqF4JCrxMA4QnCAU7k1wyHOBpC8+rJ9Wor+ECiTqooZ1AaMsJW4GvNjVWYey1M+7SHMp94KvtjFfwt/C3eK1ZtzYAf3tiLtnhOAWu0E8hRv4PDPtHT8NoFZyhRPiDDmADY9kAPYHknhIMfgjn0Afs4T/iqIz+gP6A/oD+wA4B/gD+AP4A/gD+wGsA/hD+EP4Q/hD+EP6QNMDjAXjAsXhA4DUuXux7+XsVnOEb+LarAerA+NjRAOGJnRZ2nvikiRHwtIXn3/7x5wl/NnRA/RNY2sDyLI7w1Xb8NI25wNMenmf7OPL34+vRP+31T6x17GCKuXE/vrLGuAWucHyeEBj2j6GG0YKl1xL03yxIeFQDwPmoxvpOT3higmtrggs8beEpJ8r/9z9/s0nu437f+tlbgAK/vvGriQ/IQjt+GsEZW1gynnLspeOa/T8tG+W31S/8ra0+Cjzt4Qn/amf+C66wb+6vRDpgWKKl16bRMEJw5rWYvKR2zRBeIggqraIBwhNkvp1JLhkF8LSFp0bi4NqYT5lR/wR2Y2JXGzf4ajt+msZc4GkPz9p9HuW9zvejf9rrn1jr2MGU+if84+v8Y23dgyt0U8Kh/wHD/uHTMEJwpn/cqkuoGUL1SlDgZRogPDHBtTXBBZ628NyaNONJs7GeNCPHLvEEfmPhJ7Gj4zP4kS3AV9vy1cDTFp5n+vdZ/4D85/xrqj/4Wzt9k/ws8LSHJ/VZ+Qf/O+78GFyhc1FD/wOG/cOnYYTgTP+4VZdQM4TqlaDAyzRAeIJQsDPJxVZ/O1hSvyQ85WIFx8vF22j6AJ5j41fT3uCr7flqzKXsYApfbctXw9/a6Zs8N4a/tYMp/K0tfwuu8DIar1lFwLCZaqsVrGGE4Ew19Y5TkGYI40gPSVMNEJ6Y4Nqa4AJPW3hKQhhPko37JBnhuLcABb5j43sEP5CFdvw0yEJbWDKecuyl4yP9O82L/K/VH/ytrT4KPO3hCf9qZ/4LrjBl28Y7B4b9Y6ZhhOBM/7hVl1AzhOqVdFvg1/Rxv023+8f01a2MxwQjPEHm25nkEvrA0xaeGsmDa2M+ZUb9E9iNiV1t3OCr7fhpGnOBpz08a/d5lPc634/+aa9/Yq1jB1Pqn/CPr/OPtXX/3lyhmw4O/w8Y9g+hhlF5cObrY7rfbhMVwn/3D4XeLk33+fDlPD4Pa+7zMcvgZNHKKCm/JM00TV8fdy9rjtDfKSfmZ91p8h7WwvMZNEN4vrTynCs9kD6q6SIEXVjH2rerC8EZTIb7ngxTjwJGfWN0BB/Cc2vSPPaTZj9P/5L42l//dbk4Gbt96yeFUzyttS+11Vz7/vKHb/y86J/+efpL8p5xWUYuP6cZ+T58tR0/TT4deNrDc2T/Qj5yT/4f/3eyHv7p58V8Yy//SPfRP+31zyNzaaTtG3/qnzyv4++R/AvLLL+d/H//cfo2WecwD0rf6ZpnlX/Q+XFdrvBzeiQ61Oi/Fb+b413dbE38Yx729pjWrLKvW+WsRRF1D8vau+JFNaWcEOwchvttWOEVMC5qBjBzyGoYFQVnWPlLZXuSWxp7WbqERF8WumOCJcR6SfklaYIoLth0nx6Pu7LbYr8c3/Hu0xzHCsZ+qN07ajl4WzOEg0UcTM56knqgIrjja870YBVpctfp0/rSRDbOCU9MWvuetB7BB1v97WBJuBOecrJu6fiXn5YLEzq/3b6Zfvf3ZYDGUpst41mMk1usfjP9+qdvptt3P24GZ4rL3FjA9loGfLU9X31krEbavvG37av/OP3uu9tb+V/4277721F/CDzt4dnrXK2FXP4Bpe+nXwacu5boox5X6DlASXtqfLG/JvnAwBEWBGgWQQ5ZkaP5fDmSr27L/pW19wp++HkMy9rgMCvAR9M3MPNa0TDaD86EyNbK1lNNF6abjTEQ9rsFzxX5vLLjzvf4qKT8kjS+PC8jdWiXJzHA/XJ0h+DzbbeD29PiWzOEFvVwmbOe+Ir45p1WB+xA5M4fIjiDgM2/jTnxxYJlTNxyC9OUIDLxJFluMfL3H6f/ebtN3/7hj9mA1OjtT/FMFzmjt29f/h8cKUgYu8VpEpzZz2/nndzw1fZ8dc6P4/p4WGu+2op/yhGDVtqXjqt0Dn87Xh/c8pvA0x6elv0P+aC5fT9Pv6ZdAoZ3KjblCgP3NwdMdE64lC/ldB/uTUfpg9k6F5snEBvcWbVXl4nbsd7985xMVTFctWGazgdnHtO7Y6ZhtBOcCZ0lCUqsTaQ0ncypd0SZYnns088deXl3fVZS/nYa2UnccVYPmXKCIa/iDoWBrHWb6lzRDKFOyVopGd2IpGm03J0/PufXydEAmNW9KEgebgRnUmeyWV/AinSmyiDv59JIuRock2xbE2DcG2sCTCYCzMbCbAsvwlMjGkxeC9v/t7b5j97ut8JTCcJJUlALzoyO7xH54avt+Gny4cDTHp5H+vM4af2uma2HIMZpS/kuW/RPe/1za+6Me2PhTf3Tot/R2uTnwbbfEtCUKywi+vf5Qzdpiz8/QQ+9hzwLzlAPhExBBsfvEX93u02Sr025Sa4r5RD5+uZ32t6L+OGqGKZtoPcf0c+MLHS9qYXFzZljf2/MNIx2gjPeoPd/F6Q0ncSlvNP5XKFzPR7Jb9+kEVKuo6T8jTRJx3kqOJMLECRls8RXfWuG0K7ujFMUFfoOOuPoHaL8PZr9MkRx/jCne8WZ5OojPc22v5Zhdixcu+Zg+F67b5ITk9ixJrFbeJGlbN3HvbGwJjy1yT1fm5/E0kmKce7rr1kZR/4y/ad4Wmsf2yV/L9qXBN/cAhW/OQN/Pegu1XQsxdg71tia4peeE54L/6UEm8e875/a/van791OVbdWceTSmiwcs33zWCzlR/+01z/TPovzcTFO58Y0h5T9l+eU8nvM+2Gt89PPRtvn/W9TrjA82CyDIfNPHRAf6Dm3m/obMmRpy8+Cj1uVvebvplUaRw66AE3cBKClCT/HENMsxcifpWW585n3jBkr88NVMUzbwHxqCGzxPKRUN8DMo65hVBSc2Ve0YvjR0nIHG4ERNUvoqIsIXShD7bwl5efTOMJeeA1nRIu6pZCZci7qfFKSkmPNEEryPZVGibSm5fgOOjupVPeU3l3L6j8tkZ3sXKZMkZaVnufqW6bz9ihMxFeRw1wKUPmY8MSEdtwJbYodtvrbwZKw1V6tIhcnYx+HRUqcnNl9/zLjZBvPmRTj9spv95tC4jUO775zBr7anq9Ox2Ocj4uxXV8dXqmzeKUkj8V2x2D423H7ouZHgac9POV80ezxX793JL7lNwQQdu24Qo3PZWIs3AtryhXHxsmS7wXRz5xh5IZ9mTOXneFsV/l8ujkfc4tHf5ZCaW+OK+w2OKO0IcGATj0Ot2mhMyXdnHbWpeNY3xAzrZ8VBWfm3QMZDfMPu5f2IldMpnOEyBwJ6/8YuLRzBVlC+nXVmfIXTcikcWVyvT4DgjMLxR04yeAmSlCdagLoIjCStRFRqEvTMDgTHOhsp2yv9K3XK6SrekgyaBNfXBtz4osFy5i45fpbShCN+aTYTNpvye+3+uM3Z7YWpVv6o3zd3ncL0u+nH/9z/s0YLTjTrfzhqfma8sFX2/PVOT+O6+NhnY69XfvXQ/4p7JxJf9utgDSs6f+0ca5l+fC34/XBLb8JPO3h2bL/9+G//W8u3haB8bL1UR/yz/P3Pf9N3FKLjyfh1zwZE/tM//F55KA3uL+UR+RXlvkgQcpD+nOuZ9HGhDt05YoHw53snHFDHlmm2t6knpi+0+CM2oYo9PLApWWdbegImHm9af1s0fPWCULwgpW81L84K00nsvB7AdnI5S31OO1cIVHWkDOBl0XZehpvhJJsXx6vI4J6OewcVk3MdcqFbO1O1ji3q2sqwHnRkTlynSgtTbMr8YaO07LScyp791rW7nYlq56A8NyaAOPeWBNgMhBgNhZmW3gRntok2OY1+0/vvhee86LT7ZqJD80s50Q0Br3b7x9Q/4WvtuOnyYcDT3t42hxnM8GZ5LWT1tqO/mmvf27NnXFvLLypf1rzOav2FATAV3mU12mOkKYFV+i4Ne0B5sCprfjVQO4nlKCbq8l/K6I/7uKgIFDCH2/xd64+8XC+S8uBpI2gjhRGHO+1d9WuDe5SFFt8WAPDbBsyUvj0QoeZdMDMK0bDaCc4M29RWhlQomyv5OWPKSVJktNMQCNJNZ+G9GmgKGvIJeWXpPESuPaldUfhcuUkDiGk1wwyFnXBgWYILavd7NiKQ3bpE4Nz17L6V6TP2sU68KKVvX9Nx1aRpPklwhOT2LEmsVt4kcFs3ce9sbAmPLcm4raeNAvBGfFUma32eUJe4mmtfbJtdLzVPvzmDHy1pfEIY+9YY+ue7RGeW/5rz7/1e38eZ/9V7GT8myMOl787Y6n96J/2+udeH8b9cTDX1jqW/A+NB/4hpfnVkdbaR23kv9pcoePVbhme2HF2yr2tQAoZXPjovKrn6W6Px/S4yVdt8fVPzh6/19yf53dd0IhkPMBDbrY389s1ejuieIcPzmK43QZNnMCHF+hJbytj8z6YaRjtBmfizgelQxFoc5QzALKbjsHMBTT4vvK96rwM4rqDRbkTkn9ZarkMzoiyxpYvxxs2R11dKHe6L5zEUqIrzjRDaFtvwCm+SzDUFpxu6uyczhLc3LWs/hXpmwdnOHApsCUxDjpvRfLDlwhPTGDHmcDuYYWt/nawJKy1V6vw5Hfsb3p6d16kuLaEp8os76Kwi+e8KCu1S+21ZqV5LaSDr7bnq/fGZ9wfB3PTvnr1BHf4HRrxm2AWfKxsA/ztOH2vxE8CT3t4yv5q7jjsTLS8vpGY1eQKPRGvBF8i4xV4woTn8xzqc7swXNGBN6a2zHw183eJPCuOOQgXeL2PBecdBVcP9tsbHhSXu4iUh9XVwg9cPIPhbhtI3gSv3TxCdp9WwfbNMNMwKgjOeE2ywqkQ/pOGzvreS6fd9+UpAHGh4nuVPyHxV/ejvHP5JWlEle7Q5ckYIetj/p7roszeuWzrLa2v5TnJ+YpPqgeSQ7Mhly7B1V1L9L/ZBte5k8BJyJCWlZ5TstJrK1s6IuNmA8pvkh5LJsJIM8ZEGAuWMXAq7U8pQWTpSSv+jZl57LtN//Lv5e80lgsBPu5dPymeLDd/9y5/Tfm04EzN8lmn8run8uGr7fnqUr+OdP1jr/nqnvyH9Gt8fES+1fj7089Gdwr5Bwfgb/vvc0f8IvC0h+cR/8U+T373nN/vmvlf0y9id4mUnY57lv+ofPW4Qn5Ae+ZB5zWj5Om0dEs+NceMeS5OT+v4PGXjgHuYOnLEJJuURdbEcuXuy7R0zOn32tueH34ew5I2zJsyZjx1DFIN0Tkw81rRMFqw9FoCTaG4NrYGgPPY+KXSE55HJsRI2/eEmPAFRn1jdAQfwjOdwOP8+C6NXnQGPMfFrrYNwVfb8dPk04GnPTxr93mU9zr/j/5pr38emUsjbd/4U/+Ef3ydf6yte3CFbko49D9g2D98GkYIzvSPW3UJNUOoXgkKvEwDhCcmrX1PWo/gQ4ZzJD3S9o094bk1abb0pJXWTmvtS/G01r4UQ7QvvxMMvrpv33t0bASe9vCE/8r7L/L1I+kH/dNe/zzqo5G+XxtI58aj+Zd07vvu8oMrJIse+wMM+8dPwwjBmf5xqy6hZgjVK0GBl2mA8MSEtd8J61FssNXfDpaEvfZqFW0RgGtjPHEGPMfA6Yr+BF9tz1cfHa+Rvl8bgK+25avhb/vta8/4QeBpD88r5l2o4xq/Dq6dUHw5AAAgAElEQVTwMhqvWUXAsJlqqxWsYYTgTDX1jlOQZgjjSA9JUw0Qns9MjJGnz4kxFix94vJsf0kJopGeVNUWQe8uf4pnqqN31887tR++2p6vftbPI19/tqD56nfyT+nYROcjtx/+tr8+dsbvAU97eI7sX0b3j7XlB1eYsm3jnQPD/jHTMEJwpn/cqkuoGUL1SlDgZRogPM9MkJG3rwkyGQ4w6QuTM3gQnhpJgmvXPP1VW8/Ac0zcatsBlQdfbcdPk48HnvbwbNHvUeZrxgD0T3v988zcGnn7sgfqn/CNr/GNLfQOrtBNCYf+Bwz7h0/DaBWcoUT4gw5gA2PZAD2BRH/8wTn0AXtAf4A/8BqAP4Q/hD+EP4Q/hD8kDWA8wHiA8QDjAcYDjAcYD/LjIXjAsXhA4DUuXjwW8fcqOMM38G1XA9SB8bGjAcITTxD19QTRGTxo0XgmP/L2ZQvAsy88zvYP4GkLzzP2AFuwZQvAE3ie8QfI29Z+qH+2eEIcZb7maX/g+Rq9t7J3jJ9t/d/V4wu4wvF5QmDYP4YaRguWXkvQf7Mg4VENAOejGus7PeF59aCN+tpNwjDBbafbV9gt8ASer7A71Nne7tC32+v4SjsGnsDzSntDXcfsjfonftPiN5sBqpH0Q3imgYKR5E9lp/N3lh/j5zF/1rv/B1fYN/dXIh0wLNHSa9NoGCE481pMXlK7ZggvEQSVVtEA4dn7IA/5yidtZBTQV7m+etcV8LSDJdka8LSF5xn/AVuwZQvAE3ie8QfI29Z+qH9qhDiujbkDA3iOiVuuv2H8bOv/rh5fwBWSRY/9AYb946dhhOBM/7hVl1AzhOqVoMDLNEB4Xj1oo752kzAyHOi3nX6v1i3wtIMl2Q7wtIXnGX8AW7BlC8ATeJ7xB8jb1n6of6bE8DvvVCBdjNx+wnNk+UfXf235MX629X9Xjy/gCsmix/4Aw/7x0zBCcKZ/3KpLqBlC9UpQ4GUaIDyvHrRRX7tJGLaGt9PtK+wWeALPV9gd6mxvd+jb7XV8pR0DT+B5pb2hrmP2Rv0zDc7gfNzdF8BzXOy0fofx85g/693/gyu8jMZrVhEwbKbaagVrGCE4U0294xSkGcI40kPSVAOEZ++DPOQrn7RhgluuqxHsCngCzxHsFDIet1P07eM669nOgCfw7Nk+31026p/YaYHfnNECA3wN9vE6+8D4aWv8BFeYsm3jnQPD/jHTMEJwpn/cqkuoGUL1Srot8Gv6uN+m2/1j+upWxmOCEZ7vvmiz1H5C31J73r0twNPWggV42sLzjH+CLdiyBeAJPM/4A+Rtaz/UP5mEx/f4uy6A5/gYyn6I8bOt/7t6fHlvrpCsefwPMOwfQw2j8uDM18d0v90mKoT/7h+S3g6kd7x/n/zt9Pqcn8u5PT6j9j4fy/vLOnyyr497lMGVIfLHgujg8+HT5e4vEvPJ5/SIbfCyZLNvlJ+2g9u6LKusruL2chN2vkmWV3xW7SA9LxVyQqxSO0Nw5uoBHvUdm7BRJ4DOjumsZ30BTztYkp0BT1t4nvEdsAVbtgA8gecZf4C8be2H+qckg+nYzk6Jn6dfJ9zDr/9qqX3rQAThaQe/tH06nnbt988EJ9au/9bWB145xtTlCsv4TrKhFX9awhMyH3t7TDOj7EySSnS8rsYnc4r632XtXfGiJW09IOw5DMva4MRh/R+Rn/O8OWYaRguWXktASueOstS5J7m9sSuENwVztN0JDgwO3CwtzNcjOlYATnYob8gyfzCehXAJUb+4t6xzeebzyeRbbSd9uT+ZIRTo8mntFxVSGpnV1yXbNk1l7RWFFhzmcC7I+mQSxmPZNnaYN7VjPlkVZ9uwM05i5ZvwvHLARl1tJ1/YGt5Wv1fbL/AEnlfbHOq7xubQt6/R81X2DDyB51W2hnqO2xr1z5TctnL+y0+3iYIx3B46v92+mX739/ka37PybRfPP06/+07Dc3nNCo7cDoyfx31az+NAPa7wILe6w51q3N0iyCGJVZf46uBMWXtb8Lupbp7HsKwN08T8bp4PT2Xic2DmNaFhtB+cCQGSla2zdt33AcPPkeZhZ44MxFDRyyCHXo8HeA7qzAYfjGZb+EVLVieKXCXlL+VelapfWNVV1l69sPxVzRDyqc/fmfWllBXaXG8HTagjZ2eKCKNfIjx7HuAh27EJGya4x/TVu30BT+DZu41CvudsFH37Ob31am/AE3j2apuQ678n6p92d1r4IExs399/nL693aZv//DHGLAhEjze/4cetBnpPuHJxD5/jyQ/yyy/s/IHPP/n//lh1eai/AHvbPkd3Mf4aWv8bMoVrvhOfhh95nKPcHPMA3+4NyvpD4Kn/PKR8k+nXbW3Db+bylkVw1UbGDPS93G+HZh5tDSMdoIzQdm7UUxvZEUEe440zwSBGDy3TS0YxirWkskbI3qrDKn5bpwrxjinzhvjmeBMFPdwe2fJto40Q9hKf+5eXkdcrt8xNDtkd/74DLuGQjR21wa5tPCds7NVwC8EAHP1Bdsinam/UyPv59IkotU+JdmwcLMzKSL7AJ7AEzbQpw2gf/aJyyv6C2zBli0AT+D5Cj+COsvsjvqnJLJNHwcyX+6msdbed8QzDbZZwhTjZ5kfG8XfN+UKV9yq5wqfDaDMXLHGW+uBkCnI4Pi98CakyL8yV6i82ecMvxvb14jfpT4oP1UxXGEma9rnemVqOgZmXiMaRjvBmfKgi1cyEelpxDKBI0eabxpqKPNoXt5uJXtbIs7uaSDf9SLyxugDDiGwEDp97JRqpYpDOdxeteDVRc0QVomqXcg4RVG+t53ZbqLuotL3yxDF+cOc7tjhimBPrj7nsDdkmB0L165gyLcafpOcowz2kHN/8kamAj3t62kUHQFPO1iSzQFPW3ie8SOwBVu2ADyB5xl/gLxt7Yf6Z0pm97yTgGR9Tj7/Wqzbdz9O//qfv1m1WergufLnXTevzE94vrL+5/F5Qn9//d69Bj8NtllqP8bPtv7v6vGlKVe44lYDz/d4JL9vPnODZF+5z4KPy5Utfyd9lcaRg66PRq5WS/Ps79ekZblzpW05LjzX8J3rVTFM27CoO8+HL5KJE2DmlaFhVBSciYYqlKoeBqOiirJBmpxBciBFkOZx5wsHfHJ5s8Z83FiW7QrBqYVMMkV5+d4Ib9NSlyF/CN6sfnvlcHulbPljzRDyqU/eCdgs270s0+tmdlIuWBKDIj6tu5bFYVmeO8vpLhecScrW6lte87aRiEnbcPK2r4hZ4xLhefWgjfraTcKwNbydbl9ht8ATeL7C7lBne7tD326v4yvtGHgCzyvtDXUdszfqnzIwYes4BGQiH/D99Evm1WVW2m0bzzmA87d//Dz9mnD97sfpL4Yxxfh5zJ/17v/bcYUat6pdY450frNOjjNbEP3M88VdL77smYfMc7eO54v5fLo5Hwdw9uVZyqm0LccVZvnsZYmlZ/UwVNqwECKv00UycQLMvDI0jIqCM0WvKxMKn7eKKQacM0iXP4AfJye36fEgsjuUk8ubNeaMsbhy5K4WRc7YueeggWyiP86Uv07oW/fIvBorpF8FcA63N1NxclkzhCRJxdPUKa6LVjtoEvVYBEZK8MvpjnEVwZhF2UG83WvB5kiX678tm1m3/+wVqr/3QR7ylU/aMMEt19UIdgU8gecIdgoZj9sp+vZxnfVsZ8ATePZsn+8uG/VPSzsNtCALt+8vf/jGrS3T12DxfS0vXRvpPuGZtmMk+VPZc/r/5SfiCb6Zfvf3sfApbR+nw/hpa/xsxRX6AEjKk2W4wsD3OUpwg/tLeUTmoX1gJS3bnyc0o6fiEu7QlZvyhZxxQx7J66ntTeqJ6bN8dkxx6KAWhmobFpJk+PANHQEzr0ANo53gTFC2MMwFFlsnARC24Zg0Z5AxwfJg0TFyRpstM2MsyyrUs31DpGzHyvdl6oEgL0Qoj4NRh9urNmV1UTOEVaJqF/Z15PQibMydJ4aTptkVL2sT4Tdm0vrEOZWt1be4lsNmV7D6CQjPd1+0WWo/WYil9rx7W4CnrQUL8LSF5xn/BFuwZQvAE3ie8QfI29Z+qH8yEWz/m3fS2N1B8w54ysCMdZvF+NnW/109vrTgCh2Pxm9DIoOJnzSAEm4Ucm0roj/+pgkFgZKyt8p03KHgaV1aDiRtBHViO5YH2fbmZNjgLpcll53VwDDbhoUI+1zvInnER+g6XnsvzDSMdoIz/IM9tynhylMdr8+rGJ4He95SlnSwUKvWKf2t48ZC+bwhlrT5SPkhbRIEWCouTXO0vcvScmeaIeTS1ri+2bGDncwYB/0nBufK2NRdIumGg0vLSs+ppP1rOjaJFJecEp5XD9qor90kjIwG+m2n36t1CzztYEm2Azxt4XnGH8AWbNkC8ASeZ/wB8ra1H+qfKcFtcaeFb2MIzvzTP2++Cmvk9hOeI8tPOG3J7wMztyn9nRlpw1v598rv7T7Gz7b+7+rxpTZX6Hi1W45bTflPsiZHxhX9VIDOA3ue7vZ4TI+b/FkJvv4ZKpm/1tyfl8txlMQrHuAht9urc4h6O2b5jh6dxXC7DVKagF/C3coU6bHeVsbmfTDTMNoNzsTdIUqHItB0gw0g8Q4QicgGaS6TxXqTjuANhaOYLszmfjxKkvtzOc8aS855zCX7o0z5FHBI5PZGKMslA1xGDP3vlUgHwoGi0vam8unnmiHoKWtdDZ0tbW8IzKTOzmGcdHB3LdHppnQbdpaWlZ5TuSXXPKYCG5/xkPPebEPhTcLz6kEb9bWbhGFreDvdvsJugSfwfIXdoc72doe+3V7HV9ox8ASeV9ob6jpmb9Q/JbFt55h+kyTZIRN+QD59rZmdNv95sovnnyd+Ld1WYMYSltQWjJ/H/Fnv/r8mV7jmQBWCy/F2KU96m0p+WkMn+jm4439+QPLEqjyr+oOMdP3+MX0w562Inl5Sy08SOZ5R7iJSHlZPshw+PYNhSRtmgTJ8+JxgdQTMvEo0jAqCMz4zg0SF8J9m6HwvJdwjKlnSnAM6c/m5DukNek4n5aB6NFm9XEkwJArFBxxEmMuO7REdaL98pS1pYCIjZxKTcILttZelL/2mNr3ik7aD5EixI7lcukQR7lpnwRmSdWULR2SsBALpsfdBHvKVT9owwS3X1Qh2BTyB5wh2ChmP2yn69nGd9WxnwBN49myf7y4b9U9LOw0kOc9k/sw56DsuLLWf8JQ6oGMb7aNgm8Yj0bX/4X57Jm03n4/cfoyftsbPelxhGbeqcmoJF5ijzTwXp3O8zD2uigrBmNnnJg9bx8pY/tz9mDAccHrNByzLYNlYBo0TTUs/cv48hmVtWHGg0e/pWEjZgZnXhobRgqXXEkhF4tiGBoCzDRy5FYTnuy/aLLWfcLXUnndvC/C0tWABnrbwPOOfYAu2bAF4As8z/gB529oP9U8msfH95+F1ATzHx1D2Q4yfbf3f1eMLuEKy6LE/wLB//DSMEJzpH7fqEmqGUL0SFHiZBgjPqwdt1NduEkaGA/220+/VugWedrAk2wGetvA84w9gC7ZsAXgCzzP+AHnb2g/1T0kG0/HIOw3eXX7CE/j9ZmXT0sZH0g/Gz7b+7+rxBVwhWfTYH2DYP34aRgjO9I9bdQk1Q6heCQq8TAOE59WDNuprNwnD1vB2un2F3QJP4PkKu0Od7e0Ofbu9jq+0Y+AJPK+0N9R1zN6of0riGsdj77wAnmPjl/Y/jJ/H/Fnv/h9c4WU0XrOKgGEz1VYrWMMIwZlq6h2nIM0QxpEekqYaIDx7H+QhX/mkDRPccl2NYFfAE3iOYKeQ8bidom8f11nPdgY8gWfP9vnuslH/HGknQUpe0znkn3eKEJ6pjqCfWT+pbnq3H4yftsZPcIUp2zbeOTDsHzMNIwRn+setuoSaIVSvBAVepgHC890XbZbaT4ZjqT3v3hbgaWvBAjxt4XnGP8EWbNkC8ASeZ/wB8ra1H+qfGmGNa2PuwACeY+KW628YP9v6v6vHF3CFZNFjf4Bh//hpGK2CM5QIf9ABbGAsG6AnVuiPPziHPmAP6A/wB14D8Ifwh/CH8Ifwh/CHpAGMBxgPMB5gPMB4gPEA40F+PAQPOBYPCLzGxYvHIv5eBWf4Br7taoA6MD52NEB4Xv1EBepr94QMLRqh33b6vVq3wNMOlmQ7wNMWnmf8AWzBli0AT+B5xh8gb1v7Qf9sq9+r7ZfwzO3CwPXxdtWgf9rqn+AKx+cJgWH/GGoYLVh6LUH/zYKERzUAnI9qrO/0hOfVk2rU124ShgluO92+wm6BJ/B8hd2hzvZ2h77dXsdX2jHwBJ5X2hvqOmZv6J/H9NW7fRGeaRAGvzmD35zp3W7fRT5whX1zfyXSAcMSLb02jYYRgjOvxeQltWuG8BJBUGkVDRCe7zJZeId2klG8QzvfpY3A0xahADxt4XnGD8EWbNkC8ASeZ/wB8ra1H/TPtvq92n4JzzQ4g/PxdswwZuiftvonuEKy6LE/wLB//DSMEJzpH7fqEmqGUL0SFHiZBgjPqyfVqK/dJIwMB/ptp9+rdQs87WBJtgM8beF5xh/AFmzZAvAEnmf8AfK2tR/0z7b6vdp+CU/slBl3pwwFZSR+6J+2+ie4QrLosT/AsH/8NIwQnOkft+oSaoZQvRIUeJkGCM+rJ9Wor90kDK9uaKfbV9gt8ASer7A71Nne7tC32+v4SjsGnsDzSntDXcfsDf3zmL56ty/Ck3dd4HvcHTOMHfqnrf4JrvAyGq9ZRcCwmWqrFaxhhOBMNfWOU5BmCONID0lTDRCevU/CIV/5pA0T3HJdjWBXwBN4jmCnkPG4naJvH9dZz3YGPIFnz/b57rKhf9rrn0zs87fcicHX5Dfu97vTBv3TVv8EV5iybeOdA8P+MdMwQnCmf9yqS6gZQvVKui3wa/q436bb/WP66lbGY4IRnu++aLPUfkLfUnvevS3A09aCBXjawvOMf4It2LIF4Ak8z/gD5G1rP+ifbfV7tf0SnjLwguOxd8+gf9rqn+/NFZI1j/8Bhv1jqGG0EZwJJPbtNlFG9e/x6Vr99XHX7y8I8LS8+/Th2PH0ulJXqCeq+PPh60uvuwSf0yORd52sJE2szdyBZghXNFK1kzU4T4pSakch3cI2n6yyk2yE59WTatTXbhJGZgX9ttPv1boFnnawJNsBnrbwPOMPYAu2bAF4As8z/gB529oP+mdb/V5tv4TnO+yE+csfvvGc1Xc/Tn/5xzIAY6n96J+2+mddrnCfd/18KPzv7TYV0YTMC98ek2emyRr54+u+e9KZLzb+3m8vCbDiRYsaWy76OQxL2lCSJiMvMHOK0TDaCM4kynRK5IDK8p43Lq1DcDqFEP/6mO4aQb5RzzQlBPzKiP19eZk7e3otPb/d9LZxCyx9a4bQtn2MW6pj7tRbtvOkZJt29GSZnWYjPK+eVKO+dpMwbA1vp9tX2C3wBJ6vsDvU2d7u0Lfb6/hKOwaewPNKe0Ndx+wN/fOYvnq3L8LT/G6Zv/84fXv7Zvr1T99MNyU4Y6n96J+2+mc9rrCcm332rTaLIIckeB1v57nG64IzZe31MkteNHCiK/mfJx+fx7CkDSVp8rIDM68bDaOLgjMHOsYGqT4bsjeIW4kBUxDodps2O2VJmrx9DXdHM4SWjZhxU2oJui/CUsmevbRhR9k8g94gPHufhEO+8kkbJrjluhrBroAn8BzBTiHjcTtF3z6us57tDHgCz57t891lQ/+01z/T4ISlnSR/+8cfp999d5u+/cMfJ7d75rsfp3/9z35/M4awOKN/9E9b/bMpV6jwru5heu2h/QJuzvOMj+nDvclJBjwo8wEOuqCup5Ks2qvLxO1Y7/55qla3Y++5nEquVRueTBOycVvfHTOtn10anCki4ItI9TbBmZJYj2KKw13SDKFdI/ax8rub5t0z7vzxudzud9Rhb9hROgBs1ufKCVstNRnkfXqdnpamnXJdyQjO2JoQEajvvgi31H7gif5pyZ7Rltme0bdnXViwC+AJPC3YsdU2oH/a659pcMbSuX+d2ffTL//4cwzOpK81s9Re9E9b/bMpV6gQ/Sk3R/ZU+mGi/5PfsLTg4vRAyBRkoHbyn+SBnTzKa9KekjNtbziX9bm2Bk5xdb1UEUm6qhimbUjqcqclaUI+YOYVoWF0UXBGvlcvjWgm6G6Q6nPKfcI/pt019FDWoiPH3CYPNENo19CMUxQV+g4624V3iLdpDubtlyGK84cbdpQ61lx9zllHD7mWYXYsXPtrbInktLoYe8d2kTW9Y7utthl42lqwAE9beJ7xO7AFW7YAPIHnGX+AvG3tB/2zrX6vtl/C88xOjbM7PZrmd68zu03/8u9+pwzvnEmDM5baj/5pq3825QoVbjZycSJYsvnWIzK48Fnwcauy1/zdtEpDG2z875nHOrU0z+7CScty5zPvye3ggFGkHuON5w6qYpi2QROpJE3IB8y8IjSMKgZn5sgjVaT+hkuIqGXvk5w5g10YQWlwxnfI9W6GkD86gHnXxqIaoyeaITRrakEUVQ3OJJ4pDajsyrthR2lZ6TmVvX/N21YiZqH97kp/KAHhefWkGvW1m4Rha3g73b7CboEn8HyF3aHO9naHvt1ex1faMfAEnlfaG+o6Zm/on8f01bt9EZ6Wdo7Itvzy0226/fRzbF8uOCPzjH6M/mmrf7bjCnPc7JL68tzgzs9ShCwLop85vLjrJQ3O5Dlkx/3FfD5dDNZQXY5bPMoZK+3NcZSBM11xi0vVFJ/Vw1Bpw0qKkjRzJmDmdaFhVDE4c8BYY5BGyZMz2BnPaeJtazvW6zuZEplclDXv6ll0wCSNpVPNENq1L3WK65rUDppguwiWOBuRwcBjdrQoi514snMqTUNSL65FG5Zy8PG+za218PwVwrP3STjkK5+0YYJbrqsR7Ap4As8R7BQyHrdT9O3jOuvZzoAn8OzZPt9dNvRPe/0zDUiY2Eny1++n282/zozbx8EZ/OaMLRu27JNbcYWOS7uV8WQL3m2D+0t5RN6B4nndlIf05wnN6Em4hIN25Qp+0MnDGTfkkYye2t6knpi+0+CM2oYoNKtO2ZixoSNg5vWm9bPXBGdIngAY23jEOGewMQEd5KOenKzEkDhtLC9GS+c7Fo80Q2jXzkKscs4vCObwFGl25d2wo7Ss9JzK3r1W2YHutmcjAYIztiZ7BLXlCd+7tQ14on++m82/S3vRt9G338XWR2wn+if654h2+y4yU//k4IWlb7drJr6ZhR/anL+//cMfTbYb/taWv23BFTpurTAwQ/bk0ysPYNNN8VkR/cQUf9zDW5yS4MwWf+e4Q1GfS8uBpI2gjpBFHmbbm5Nhg7uU5ZYe18Aw2wYhREkakdwdAjOvEQ2j1wVnThnmNuHvjeQ2rQI/qWXE81DeEfI/5h3vQDOElq3Y7LTBDuSuJZc+Ac9dO4LPhoNLy0rPSRf71xJn31KBO2UTnu8ymX+HdhLc79DOd2kj8LS1YAGetvA844dgC7ZsAXgCzzP+AHnb2g/6Z1v9Xm2/hKeJnTL/+HM22MLt450z+M0ZWzZ8dZ+5sr7aXKHj1W5tuFmN6J/C78PcHo/pcZOvR/P83fy71uSJ/GfN/Xl+2HGUxCse4CG326tziHo7WLrj32cx3G6D0NkhXH0+va2MzftgpmF0TXBmZdAhGKLtVNkg1WezzAdnPNhbnZ+AF1FRKtTVKTvuXJPFI80Q2rYzdLZU7yEwkzo75wy6D87IqLzQ3srWxb1Gh4TnlQM26mo7ucSrG9rq92r7BZ7A82qbQ33X2Bz69jV6vsqegSfwvMrWUM9xW0P/PK6znu2M8LS0Y2arLbngzFae0e6hf9rqnzW5wl1ulvjAJPCxm0dwajrRP/O71Bb5ELhaduCCE/rRc8T3j+njsSxDVL86VMtPUvnAB+/KcVt9pnsiZ5Ll8OkZDEvaUJImJ7TPm/DxlDjg8C6YaRhVDM7MWzapIvcnOhoDqN1bAOdAEcYqbq7K4Hoi6c9BAEUWsY1OK2fVGUW91g41Q7iijRyBjTaQcUKjBGdIZytbEjZ/hU6pDtJnzxNwyHZswoYJ7jF99W5fwBN49m6jkO85G0Xffk5vvdob8ASevdom5PrvCf3TXv9MAxC80yS9zuej3ufgDH5zxpYNW/bL9bjCEm6WH9qX/K1C3GeINc/F6emZe1zxvCII4HlJnXuOO3AEj5wRI1wuaa9PyrIxLyoDSNt1lN19HsOSNpSkycsJzLxuNIzKgzN5/eLOYBrQDGGwJkBcoQHC0/IE4d3aRtC+W5sttxd42lqMAU9beJ7xPbAFW7YAPIHnGX+AvG3tB/2zrX6vtl/Ck4Mu+M6/Gm0U3aB/2uqf4ArJosf+AMP+8dMwQnCmf9yqS6gZQvVKUOBlGiA8r55Uo752kzAyHOi3nX6v1i3wtIMl2Q7wtIXnGX8AW7BlC8ATeJ7xB8jb1n7QP9vq92r7JTxH3QnDARPI/5sYYEP/tNU/wRWSRY/9AYb946dhhOBM/7hVl1AzhOqVoMDLNEB4Xj2pRn3tJmF4dUM73b7CboEn8HyF3aHO9naHvt1ex1faMfAEnlfaG+o6Zm/on8f01bt9EZ4c5MD3+Dtn0D9t9U9whZfReM0qAobNVFutYA0jBGeqqXecgjRDGEd6SJpqgPDsfRIO+conbZjglutqBLsCnsBzBDuFjMftFH37uM56tjPgCTx7ts93lw39017/TIMy2Iky70RJdUPnPesH/dNW/wRXmLJt450Dw/4x0zBCcKZ/3KpLqBlC9UpQ4GUaIDzffdFmqf1kOJba8+5tAZ62FizA0xaeZ/wTbMGWLQBP4HnGHyBvW/tB/2yr36vtl/DUAhC4NuYuGvRPW/0TXCFZ9NgfYNg/fhpGq+AMJcIfdAAbGMsG6IkV+uMPzqEP2AP6A/yB1wD8Ifwh/CH8IZrn7ysAAAC+SURBVPwh/CFpAOMBxgOMBxgPMB5gPMB4kB8PwQOOxQMCr3Hx4rGIvxfBGb6Ib2gAGoAGoAFoABqABqABaAAagAagAWgAGoAGoAFoABqABqABaAAagAaggTYaQHCmjV5RKjQADUAD0AA0AA1AA9AANAANQAPQADQADUAD0AA0AA1AA9AANAANQAOqBhCcUdWCi9AANAANQAPQADQADUAD0AA0AA1AA9AANAANQAPQADQADUAD0AA0AA200cD/B27jbGYhzSsEAAAAAElFTkSuQmCC;" parent="1" vertex="1">
          <mxGeometry x="3" y="650" width="1785.45" height="346.42" as="geometry" />
        </mxCell>
      </root>
    </mxGraphModel>
  </diagram>
</mxfile>
